<?xml version="1.0" encoding="utf-8" standalone="no"?>
<!DOCTYPE svg PUBLIC "-//W3C//DTD SVG 1.1//EN"
  "http://www.w3.org/Graphics/SVG/1.1/DTD/svg11.dtd">
<svg xmlns:xlink="http://www.w3.org/1999/xlink" width="921.6pt" height="532.8pt" viewBox="0 0 921.6 532.8" xmlns="http://www.w3.org/2000/svg" version="1.1" role="img" aria-label="What made the pixels?">
 <title>What made the pixels?</title>
 <metadata>
  <rdf:RDF xmlns:dc="http://purl.org/dc/elements/1.1/" xmlns:cc="http://creativecommons.org/ns#" xmlns:rdf="http://www.w3.org/1999/02/22-rdf-syntax-ns#">
   <cc:Work>
    <dc:type rdf:resource="http://purl.org/dc/dcmitype/StillImage"/>
    <dc:title>What made the pixels?</dc:title>
    <dc:description>Four broad workflow roles: code rendering, supplied-media transformation, external-model direction, and program capture.</dc:description>
    <dc:format>image/svg+xml</dc:format>
    <dc:creator>
     <cc:Agent>
      <dc:title>Hypit public chart generator</dc:title>
     </cc:Agent>
    </dc:creator>
   </cc:Work>
  </rdf:RDF>
 </metadata>
 <defs>
  <style type="text/css">*{stroke-linejoin: round; stroke-linecap: butt}</style>
 </defs>
 <g id="figure_1">
  <g id="patch_1">
   <path d="M 0 532.8
L 921.6 532.8
L 921.6 0
L 0 0
z
" style="fill: #f8f6f1"/>
  </g>
  <g id="patch_2">
   <path d="M 56.2176 280.7856
L 455.2704 280.7856
Q 471.8592 280.7856 471.8592 271.1952
L 471.8592 136.3968
Q 471.8592 126.8064 455.2704 126.8064
L 56.2176 126.8064
Q 39.6288 126.8064 39.6288 136.3968
L 39.6288 271.1952
Q 39.6288 280.7856 56.2176 280.7856
z
" style="fill: #ffffff; stroke: #deded5; stroke-width: 0.9; stroke-linejoin: miter"/>
  </g>
  <g id="patch_3">
   <path d="M 493.9776 280.7856
L 893.0304 280.7856
Q 909.6192 280.7856 909.6192 271.1952
L 909.6192 136.3968
Q 909.6192 126.8064 893.0304 126.8064
L 493.9776 126.8064
Q 477.3888 126.8064 477.3888 136.3968
L 477.3888 271.1952
Q 477.3888 280.7856 493.9776 280.7856
z
" style="fill: #ffffff; stroke: #deded5; stroke-width: 0.9; stroke-linejoin: miter"/>
  </g>
  <g id="patch_4">
   <path d="M 56.2176 445.9536
L 455.2704 445.9536
Q 471.8592 445.9536 471.8592 436.3632
L 471.8592 301.5648
Q 471.8592 291.9744 455.2704 291.9744
L 56.2176 291.9744
Q 39.6288 291.9744 39.6288 301.5648
L 39.6288 436.3632
Q 39.6288 445.9536 56.2176 445.9536
z
" style="fill: #ffffff; stroke: #deded5; stroke-width: 0.9; stroke-linejoin: miter"/>
  </g>
  <g id="patch_5">
   <path d="M 493.9776 445.9536
L 893.0304 445.9536
Q 909.6192 445.9536 909.6192 436.3632
L 909.6192 301.5648
Q 909.6192 291.9744 893.0304 291.9744
L 493.9776 291.9744
Q 477.3888 291.9744 477.3888 301.5648
L 477.3888 436.3632
Q 477.3888 445.9536 493.9776 445.9536
z
" style="fill: #ffffff; stroke: #deded5; stroke-width: 0.9; stroke-linejoin: miter"/>
  </g>
  <g id="text_1">
   <!-- What made the pixels? -->
   <g style="fill: #172b32" transform="translate(50.688 57.436406) scale(0.23 -0.23)">
    <defs>
     <path id="DejaVuSans-Bold-3a" d="M 191 4666
L 1344 4666
L 2150 1275
L 2950 4666
L 4109 4666
L 4909 1275
L 5716 4666
L 6859 4666
L 5759 0
L 4372 0
L 3525 3547
L 2688 0
L 1300 0
L 191 4666
z
" transform="scale(0.015625)"/>
     <path id="DejaVuSans-Bold-4b" d="M 4056 2131
L 4056 0
L 2931 0
L 2931 347
L 2931 1625
Q 2931 2084 2911 2256
Q 2891 2428 2841 2509
Q 2775 2619 2662 2680
Q 2550 2741 2406 2741
Q 2056 2741 1856 2470
Q 1656 2200 1656 1722
L 1656 0
L 538 0
L 538 4863
L 1656 4863
L 1656 2988
Q 1909 3294 2193 3439
Q 2478 3584 2822 3584
Q 3428 3584 3742 3212
Q 4056 2841 4056 2131
z
" transform="scale(0.015625)"/>
     <path id="DejaVuSans-Bold-44" d="M 2106 1575
Q 1756 1575 1579 1456
Q 1403 1338 1403 1106
Q 1403 894 1545 773
Q 1688 653 1941 653
Q 2256 653 2472 879
Q 2688 1106 2688 1447
L 2688 1575
L 2106 1575
z
M 3816 1997
L 3816 0
L 2688 0
L 2688 519
Q 2463 200 2181 54
Q 1900 -91 1497 -91
Q 953 -91 614 226
Q 275 544 275 1050
Q 275 1666 698 1953
Q 1122 2241 2028 2241
L 2688 2241
L 2688 2328
Q 2688 2594 2478 2717
Q 2269 2841 1825 2841
Q 1466 2841 1156 2769
Q 847 2697 581 2553
L 581 3406
Q 941 3494 1303 3539
Q 1666 3584 2028 3584
Q 2975 3584 3395 3211
Q 3816 2838 3816 1997
z
" transform="scale(0.015625)"/>
     <path id="DejaVuSans-Bold-57" d="M 1759 4494
L 1759 3500
L 2913 3500
L 2913 2700
L 1759 2700
L 1759 1216
Q 1759 972 1856 886
Q 1953 800 2241 800
L 2816 800
L 2816 0
L 1856 0
Q 1194 0 917 276
Q 641 553 641 1216
L 641 2700
L 84 2700
L 84 3500
L 641 3500
L 641 4494
L 1759 4494
z
" transform="scale(0.015625)"/>
     <path id="DejaVuSans-Bold-3" transform="scale(0.015625)"/>
     <path id="DejaVuSans-Bold-50" d="M 3781 2919
Q 3994 3244 4286 3414
Q 4578 3584 4928 3584
Q 5531 3584 5847 3212
Q 6163 2841 6163 2131
L 6163 0
L 5038 0
L 5038 1825
Q 5041 1866 5042 1909
Q 5044 1953 5044 2034
Q 5044 2406 4934 2573
Q 4825 2741 4581 2741
Q 4263 2741 4089 2478
Q 3916 2216 3909 1719
L 3909 0
L 2784 0
L 2784 1825
Q 2784 2406 2684 2573
Q 2584 2741 2328 2741
Q 2006 2741 1831 2477
Q 1656 2213 1656 1722
L 1656 0
L 531 0
L 531 3500
L 1656 3500
L 1656 2988
Q 1863 3284 2130 3434
Q 2397 3584 2719 3584
Q 3081 3584 3359 3409
Q 3638 3234 3781 2919
z
" transform="scale(0.015625)"/>
     <path id="DejaVuSans-Bold-47" d="M 2919 2988
L 2919 4863
L 4044 4863
L 4044 0
L 2919 0
L 2919 506
Q 2688 197 2409 53
Q 2131 -91 1766 -91
Q 1119 -91 703 423
Q 288 938 288 1747
Q 288 2556 703 3070
Q 1119 3584 1766 3584
Q 2128 3584 2408 3439
Q 2688 3294 2919 2988
z
M 2181 722
Q 2541 722 2730 984
Q 2919 1247 2919 1747
Q 2919 2247 2730 2509
Q 2541 2772 2181 2772
Q 1825 2772 1636 2509
Q 1447 2247 1447 1747
Q 1447 1247 1636 984
Q 1825 722 2181 722
z
" transform="scale(0.015625)"/>
     <path id="DejaVuSans-Bold-48" d="M 4031 1759
L 4031 1441
L 1416 1441
Q 1456 1047 1700 850
Q 1944 653 2381 653
Q 2734 653 3104 758
Q 3475 863 3866 1075
L 3866 213
Q 3469 63 3072 -14
Q 2675 -91 2278 -91
Q 1328 -91 801 392
Q 275 875 275 1747
Q 275 2603 792 3093
Q 1309 3584 2216 3584
Q 3041 3584 3536 3087
Q 4031 2591 4031 1759
z
M 2881 2131
Q 2881 2450 2695 2645
Q 2509 2841 2209 2841
Q 1884 2841 1681 2658
Q 1478 2475 1428 2131
L 2881 2131
z
" transform="scale(0.015625)"/>
     <path id="DejaVuSans-Bold-53" d="M 1656 506
L 1656 -1331
L 538 -1331
L 538 3500
L 1656 3500
L 1656 2988
Q 1888 3294 2169 3439
Q 2450 3584 2816 3584
Q 3463 3584 3878 3070
Q 4294 2556 4294 1747
Q 4294 938 3878 423
Q 3463 -91 2816 -91
Q 2450 -91 2169 54
Q 1888 200 1656 506
z
M 2400 2772
Q 2041 2772 1848 2508
Q 1656 2244 1656 1747
Q 1656 1250 1848 986
Q 2041 722 2400 722
Q 2759 722 2948 984
Q 3138 1247 3138 1747
Q 3138 2247 2948 2509
Q 2759 2772 2400 2772
z
" transform="scale(0.015625)"/>
     <path id="DejaVuSans-Bold-4c" d="M 538 3500
L 1656 3500
L 1656 0
L 538 0
L 538 3500
z
M 538 4863
L 1656 4863
L 1656 3950
L 538 3950
L 538 4863
z
" transform="scale(0.015625)"/>
     <path id="DejaVuSans-Bold-5b" d="M 1422 1791
L 159 3500
L 1344 3500
L 2059 2463
L 2784 3500
L 3969 3500
L 2706 1797
L 4031 0
L 2847 0
L 2059 1106
L 1281 0
L 97 0
L 1422 1791
z
" transform="scale(0.015625)"/>
     <path id="DejaVuSans-Bold-4f" d="M 538 4863
L 1656 4863
L 1656 0
L 538 0
L 538 4863
z
" transform="scale(0.015625)"/>
     <path id="DejaVuSans-Bold-56" d="M 3272 3391
L 3272 2541
Q 2913 2691 2578 2766
Q 2244 2841 1947 2841
Q 1628 2841 1473 2761
Q 1319 2681 1319 2516
Q 1319 2381 1436 2309
Q 1553 2238 1856 2203
L 2053 2175
Q 2913 2066 3209 1816
Q 3506 1566 3506 1031
Q 3506 472 3093 190
Q 2681 -91 1863 -91
Q 1516 -91 1145 -36
Q 775 19 384 128
L 384 978
Q 719 816 1070 734
Q 1422 653 1784 653
Q 2113 653 2278 743
Q 2444 834 2444 1013
Q 2444 1163 2330 1236
Q 2216 1309 1875 1350
L 1678 1375
Q 931 1469 631 1722
Q 331 1975 331 2491
Q 331 3047 712 3315
Q 1094 3584 1881 3584
Q 2191 3584 2531 3537
Q 2872 3491 3272 3391
z
" transform="scale(0.015625)"/>
     <path id="DejaVuSans-Bold-22" d="M 2216 1575
L 1088 1575
L 1088 1728
Q 1088 1984 1191 2182
Q 1294 2381 1625 2688
L 1825 2869
Q 2003 3031 2086 3175
Q 2169 3319 2169 3463
Q 2169 3681 2019 3804
Q 1869 3928 1600 3928
Q 1347 3928 1053 3823
Q 759 3719 441 3513
L 441 4494
Q 819 4625 1131 4687
Q 1444 4750 1734 4750
Q 2497 4750 2897 4439
Q 3297 4128 3297 3531
Q 3297 3225 3175 2983
Q 3053 2741 2759 2463
L 2559 2284
Q 2347 2091 2281 1973
Q 2216 1856 2216 1716
L 2216 1575
z
M 1088 1113
L 2216 1113
L 2216 0
L 1088 0
L 1088 1113
z
" transform="scale(0.015625)"/>
    </defs>
    <use xlink:href="#DejaVuSans-Bold-3a"/>
    <use xlink:href="#DejaVuSans-Bold-4b" transform="translate(110.296875 0)"/>
    <use xlink:href="#DejaVuSans-Bold-44" transform="translate(181.484375 0)"/>
    <use xlink:href="#DejaVuSans-Bold-57" transform="translate(248.96875 0)"/>
    <use xlink:href="#DejaVuSans-Bold-3" transform="translate(296.765625 0)"/>
    <use xlink:href="#DejaVuSans-Bold-50" transform="translate(331.578125 0)"/>
    <use xlink:href="#DejaVuSans-Bold-44" transform="translate(435.78125 0)"/>
    <use xlink:href="#DejaVuSans-Bold-47" transform="translate(503.265625 0)"/>
    <use xlink:href="#DejaVuSans-Bold-48" transform="translate(574.84375 0)"/>
    <use xlink:href="#DejaVuSans-Bold-3" transform="translate(642.671875 0)"/>
    <use xlink:href="#DejaVuSans-Bold-57" transform="translate(677.484375 0)"/>
    <use xlink:href="#DejaVuSans-Bold-4b" transform="translate(725.28125 0)"/>
    <use xlink:href="#DejaVuSans-Bold-48" transform="translate(796.46875 0)"/>
    <use xlink:href="#DejaVuSans-Bold-3" transform="translate(864.296875 0)"/>
    <use xlink:href="#DejaVuSans-Bold-53" transform="translate(899.109375 0)"/>
    <use xlink:href="#DejaVuSans-Bold-4c" transform="translate(970.6875 0)"/>
    <use xlink:href="#DejaVuSans-Bold-5b" transform="translate(1004.96875 0)"/>
    <use xlink:href="#DejaVuSans-Bold-48" transform="translate(1069.46875 0)"/>
    <use xlink:href="#DejaVuSans-Bold-4f" transform="translate(1137.296875 0)"/>
    <use xlink:href="#DejaVuSans-Bold-56" transform="translate(1171.578125 0)"/>
    <use xlink:href="#DejaVuSans-Bold-22" transform="translate(1231.09375 0)"/>
   </g>
  </g>
  <g id="text_2">
   <!-- Four broad roles in the reviewed workflows · a similar frame can come from different tools -->
   <g style="fill: #5c6d70" transform="translate(50.688 82.950281) scale(0.11 -0.11)">
    <defs>
     <path id="DejaVuSans-29" d="M 628 4666
L 3309 4666
L 3309 4134
L 1259 4134
L 1259 2759
L 3109 2759
L 3109 2228
L 1259 2228
L 1259 0
L 628 0
L 628 4666
z
" transform="scale(0.015625)"/>
     <path id="DejaVuSans-52" d="M 1959 3097
Q 1497 3097 1228 2736
Q 959 2375 959 1747
Q 959 1119 1226 758
Q 1494 397 1959 397
Q 2419 397 2687 759
Q 2956 1122 2956 1747
Q 2956 2369 2687 2733
Q 2419 3097 1959 3097
z
M 1959 3584
Q 2709 3584 3137 3096
Q 3566 2609 3566 1747
Q 3566 888 3137 398
Q 2709 -91 1959 -91
Q 1206 -91 779 398
Q 353 888 353 1747
Q 353 2609 779 3096
Q 1206 3584 1959 3584
z
" transform="scale(0.015625)"/>
     <path id="DejaVuSans-58" d="M 544 1381
L 544 3500
L 1119 3500
L 1119 1403
Q 1119 906 1312 657
Q 1506 409 1894 409
Q 2359 409 2629 706
Q 2900 1003 2900 1516
L 2900 3500
L 3475 3500
L 3475 0
L 2900 0
L 2900 538
Q 2691 219 2414 64
Q 2138 -91 1772 -91
Q 1169 -91 856 284
Q 544 659 544 1381
z
M 1991 3584
L 1991 3584
z
" transform="scale(0.015625)"/>
     <path id="DejaVuSans-55" d="M 2631 2963
Q 2534 3019 2420 3045
Q 2306 3072 2169 3072
Q 1681 3072 1420 2755
Q 1159 2438 1159 1844
L 1159 0
L 581 0
L 581 3500
L 1159 3500
L 1159 2956
Q 1341 3275 1631 3429
Q 1922 3584 2338 3584
Q 2397 3584 2469 3576
Q 2541 3569 2628 3553
L 2631 2963
z
" transform="scale(0.015625)"/>
     <path id="DejaVuSans-3" transform="scale(0.015625)"/>
     <path id="DejaVuSans-45" d="M 3116 1747
Q 3116 2381 2855 2742
Q 2594 3103 2138 3103
Q 1681 3103 1420 2742
Q 1159 2381 1159 1747
Q 1159 1113 1420 752
Q 1681 391 2138 391
Q 2594 391 2855 752
Q 3116 1113 3116 1747
z
M 1159 2969
Q 1341 3281 1617 3432
Q 1894 3584 2278 3584
Q 2916 3584 3314 3078
Q 3713 2572 3713 1747
Q 3713 922 3314 415
Q 2916 -91 2278 -91
Q 1894 -91 1617 61
Q 1341 213 1159 525
L 1159 0
L 581 0
L 581 4863
L 1159 4863
L 1159 2969
z
" transform="scale(0.015625)"/>
     <path id="DejaVuSans-44" d="M 2194 1759
Q 1497 1759 1228 1600
Q 959 1441 959 1056
Q 959 750 1161 570
Q 1363 391 1709 391
Q 2188 391 2477 730
Q 2766 1069 2766 1631
L 2766 1759
L 2194 1759
z
M 3341 1997
L 3341 0
L 2766 0
L 2766 531
Q 2569 213 2275 61
Q 1981 -91 1556 -91
Q 1019 -91 701 211
Q 384 513 384 1019
Q 384 1609 779 1909
Q 1175 2209 1959 2209
L 2766 2209
L 2766 2266
Q 2766 2663 2505 2880
Q 2244 3097 1772 3097
Q 1472 3097 1187 3025
Q 903 2953 641 2809
L 641 3341
Q 956 3463 1253 3523
Q 1550 3584 1831 3584
Q 2591 3584 2966 3190
Q 3341 2797 3341 1997
z
" transform="scale(0.015625)"/>
     <path id="DejaVuSans-47" d="M 2906 2969
L 2906 4863
L 3481 4863
L 3481 0
L 2906 0
L 2906 525
Q 2725 213 2448 61
Q 2172 -91 1784 -91
Q 1150 -91 751 415
Q 353 922 353 1747
Q 353 2572 751 3078
Q 1150 3584 1784 3584
Q 2172 3584 2448 3432
Q 2725 3281 2906 2969
z
M 947 1747
Q 947 1113 1208 752
Q 1469 391 1925 391
Q 2381 391 2643 752
Q 2906 1113 2906 1747
Q 2906 2381 2643 2742
Q 2381 3103 1925 3103
Q 1469 3103 1208 2742
Q 947 2381 947 1747
z
" transform="scale(0.015625)"/>
     <path id="DejaVuSans-4f" d="M 603 4863
L 1178 4863
L 1178 0
L 603 0
L 603 4863
z
" transform="scale(0.015625)"/>
     <path id="DejaVuSans-48" d="M 3597 1894
L 3597 1613
L 953 1613
Q 991 1019 1311 708
Q 1631 397 2203 397
Q 2534 397 2845 478
Q 3156 559 3463 722
L 3463 178
Q 3153 47 2828 -22
Q 2503 -91 2169 -91
Q 1331 -91 842 396
Q 353 884 353 1716
Q 353 2575 817 3079
Q 1281 3584 2069 3584
Q 2775 3584 3186 3129
Q 3597 2675 3597 1894
z
M 3022 2063
Q 3016 2534 2758 2815
Q 2500 3097 2075 3097
Q 1594 3097 1305 2825
Q 1016 2553 972 2059
L 3022 2063
z
" transform="scale(0.015625)"/>
     <path id="DejaVuSans-56" d="M 2834 3397
L 2834 2853
Q 2591 2978 2328 3040
Q 2066 3103 1784 3103
Q 1356 3103 1142 2972
Q 928 2841 928 2578
Q 928 2378 1081 2264
Q 1234 2150 1697 2047
L 1894 2003
Q 2506 1872 2764 1633
Q 3022 1394 3022 966
Q 3022 478 2636 193
Q 2250 -91 1575 -91
Q 1294 -91 989 -36
Q 684 19 347 128
L 347 722
Q 666 556 975 473
Q 1284 391 1588 391
Q 1994 391 2212 530
Q 2431 669 2431 922
Q 2431 1156 2273 1281
Q 2116 1406 1581 1522
L 1381 1569
Q 847 1681 609 1914
Q 372 2147 372 2553
Q 372 3047 722 3315
Q 1072 3584 1716 3584
Q 2034 3584 2315 3537
Q 2597 3491 2834 3397
z
" transform="scale(0.015625)"/>
     <path id="DejaVuSans-4c" d="M 603 3500
L 1178 3500
L 1178 0
L 603 0
L 603 3500
z
M 603 4863
L 1178 4863
L 1178 4134
L 603 4134
L 603 4863
z
" transform="scale(0.015625)"/>
     <path id="DejaVuSans-51" d="M 3513 2113
L 3513 0
L 2938 0
L 2938 2094
Q 2938 2591 2744 2837
Q 2550 3084 2163 3084
Q 1697 3084 1428 2787
Q 1159 2491 1159 1978
L 1159 0
L 581 0
L 581 3500
L 1159 3500
L 1159 2956
Q 1366 3272 1645 3428
Q 1925 3584 2291 3584
Q 2894 3584 3203 3211
Q 3513 2838 3513 2113
z
" transform="scale(0.015625)"/>
     <path id="DejaVuSans-57" d="M 1172 4494
L 1172 3500
L 2356 3500
L 2356 3053
L 1172 3053
L 1172 1153
Q 1172 725 1289 603
Q 1406 481 1766 481
L 2356 481
L 2356 0
L 1766 0
Q 1100 0 847 248
Q 594 497 594 1153
L 594 3053
L 172 3053
L 172 3500
L 594 3500
L 594 4494
L 1172 4494
z
" transform="scale(0.015625)"/>
     <path id="DejaVuSans-4b" d="M 3513 2113
L 3513 0
L 2938 0
L 2938 2094
Q 2938 2591 2744 2837
Q 2550 3084 2163 3084
Q 1697 3084 1428 2787
Q 1159 2491 1159 1978
L 1159 0
L 581 0
L 581 4863
L 1159 4863
L 1159 2956
Q 1366 3272 1645 3428
Q 1925 3584 2291 3584
Q 2894 3584 3203 3211
Q 3513 2838 3513 2113
z
" transform="scale(0.015625)"/>
     <path id="DejaVuSans-59" d="M 191 3500
L 800 3500
L 1894 563
L 2988 3500
L 3597 3500
L 2284 0
L 1503 0
L 191 3500
z
" transform="scale(0.015625)"/>
     <path id="DejaVuSans-5a" d="M 269 3500
L 844 3500
L 1563 769
L 2278 3500
L 2956 3500
L 3675 769
L 4391 3500
L 4966 3500
L 4050 0
L 3372 0
L 2619 2869
L 1863 0
L 1184 0
L 269 3500
z
" transform="scale(0.015625)"/>
     <path id="DejaVuSans-4e" d="M 581 4863
L 1159 4863
L 1159 1991
L 2875 3500
L 3609 3500
L 1753 1863
L 3688 0
L 2938 0
L 1159 1709
L 1159 0
L 581 0
L 581 4863
z
" transform="scale(0.015625)"/>
     <path id="DejaVuSans-13b0" d="M 1831 4863
L 3431 4863
L 3431 0
L 2853 0
L 2853 4384
L 1825 4384
Q 1516 4384 1395 4259
Q 1275 4134 1275 3809
L 1275 3500
L 2222 3500
L 2222 3053
L 1275 3053
L 1275 0
L 697 0
L 697 3053
L 147 3053
L 147 3500
L 697 3500
L 697 3744
Q 697 4328 969 4595
Q 1241 4863 1831 4863
z
" transform="scale(0.015625)"/>
     <path id="DejaVuSans-79" d="M 684 2619
L 1344 2619
L 1344 1825
L 684 1825
L 684 2619
z
" transform="scale(0.015625)"/>
     <path id="DejaVuSans-50" d="M 3328 2828
Q 3544 3216 3844 3400
Q 4144 3584 4550 3584
Q 5097 3584 5394 3201
Q 5691 2819 5691 2113
L 5691 0
L 5113 0
L 5113 2094
Q 5113 2597 4934 2840
Q 4756 3084 4391 3084
Q 3944 3084 3684 2787
Q 3425 2491 3425 1978
L 3425 0
L 2847 0
L 2847 2094
Q 2847 2600 2669 2842
Q 2491 3084 2119 3084
Q 1678 3084 1418 2786
Q 1159 2488 1159 1978
L 1159 0
L 581 0
L 581 3500
L 1159 3500
L 1159 2956
Q 1356 3278 1631 3431
Q 1906 3584 2284 3584
Q 2666 3584 2933 3390
Q 3200 3197 3328 2828
z
" transform="scale(0.015625)"/>
     <path id="DejaVuSans-49" d="M 2375 4863
L 2375 4384
L 1825 4384
Q 1516 4384 1395 4259
Q 1275 4134 1275 3809
L 1275 3500
L 2222 3500
L 2222 3053
L 1275 3053
L 1275 0
L 697 0
L 697 3053
L 147 3053
L 147 3500
L 697 3500
L 697 3744
Q 697 4328 969 4595
Q 1241 4863 1831 4863
L 2375 4863
z
" transform="scale(0.015625)"/>
     <path id="DejaVuSans-46" d="M 3122 3366
L 3122 2828
Q 2878 2963 2633 3030
Q 2388 3097 2138 3097
Q 1578 3097 1268 2742
Q 959 2388 959 1747
Q 959 1106 1268 751
Q 1578 397 2138 397
Q 2388 397 2633 464
Q 2878 531 3122 666
L 3122 134
Q 2881 22 2623 -34
Q 2366 -91 2075 -91
Q 1284 -91 818 406
Q 353 903 353 1747
Q 353 2603 823 3093
Q 1294 3584 2113 3584
Q 2378 3584 2631 3529
Q 2884 3475 3122 3366
z
" transform="scale(0.015625)"/>
     <path id="DejaVuSans-13ae" d="M 4531 4863
L 4531 4384
L 3981 4384
Q 3672 4384 3551 4259
Q 3431 4134 3431 3809
L 3431 3500
L 4378 3500
L 4378 3053
L 3431 3053
L 3431 0
L 2853 0
L 2853 3053
L 1275 3053
L 1275 0
L 697 0
L 697 3053
L 147 3053
L 147 3500
L 697 3500
L 697 3744
Q 697 4328 969 4595
Q 1241 4863 1831 4863
L 2375 4863
L 2375 4384
L 1825 4384
Q 1516 4384 1394 4259
Q 1275 4134 1275 3809
L 1275 3500
L 2853 3500
L 2853 3744
Q 2853 4328 3125 4595
Q 3397 4863 3988 4863
L 4531 4863
z
" transform="scale(0.015625)"/>
    </defs>
    <use xlink:href="#DejaVuSans-29"/>
    <use xlink:href="#DejaVuSans-52" transform="translate(53.953125 0)"/>
    <use xlink:href="#DejaVuSans-58" transform="translate(115.140625 0)"/>
    <use xlink:href="#DejaVuSans-55" transform="translate(178.515625 0)"/>
    <use xlink:href="#DejaVuSans-3" transform="translate(219.625 0)"/>
    <use xlink:href="#DejaVuSans-45" transform="translate(251.40625 0)"/>
    <use xlink:href="#DejaVuSans-55" transform="translate(314.890625 0)"/>
    <use xlink:href="#DejaVuSans-52" transform="translate(353.796875 0)"/>
    <use xlink:href="#DejaVuSans-44" transform="translate(414.984375 0)"/>
    <use xlink:href="#DejaVuSans-47" transform="translate(476.265625 0)"/>
    <use xlink:href="#DejaVuSans-3" transform="translate(539.75 0)"/>
    <use xlink:href="#DejaVuSans-55" transform="translate(571.53125 0)"/>
    <use xlink:href="#DejaVuSans-52" transform="translate(610.4375 0)"/>
    <use xlink:href="#DejaVuSans-4f" transform="translate(671.625 0)"/>
    <use xlink:href="#DejaVuSans-48" transform="translate(699.40625 0)"/>
    <use xlink:href="#DejaVuSans-56" transform="translate(760.9375 0)"/>
    <use xlink:href="#DejaVuSans-3" transform="translate(813.03125 0)"/>
    <use xlink:href="#DejaVuSans-4c" transform="translate(844.8125 0)"/>
    <use xlink:href="#DejaVuSans-51" transform="translate(872.59375 0)"/>
    <use xlink:href="#DejaVuSans-3" transform="translate(935.96875 0)"/>
    <use xlink:href="#DejaVuSans-57" transform="translate(967.75 0)"/>
    <use xlink:href="#DejaVuSans-4b" transform="translate(1006.953125 0)"/>
    <use xlink:href="#DejaVuSans-48" transform="translate(1070.328125 0)"/>
    <use xlink:href="#DejaVuSans-3" transform="translate(1131.859375 0)"/>
    <use xlink:href="#DejaVuSans-55" transform="translate(1163.640625 0)"/>
    <use xlink:href="#DejaVuSans-48" transform="translate(1202.546875 0)"/>
    <use xlink:href="#DejaVuSans-59" transform="translate(1264.078125 0)"/>
    <use xlink:href="#DejaVuSans-4c" transform="translate(1323.265625 0)"/>
    <use xlink:href="#DejaVuSans-48" transform="translate(1351.046875 0)"/>
    <use xlink:href="#DejaVuSans-5a" transform="translate(1412.578125 0)"/>
    <use xlink:href="#DejaVuSans-48" transform="translate(1494.359375 0)"/>
    <use xlink:href="#DejaVuSans-47" transform="translate(1555.890625 0)"/>
    <use xlink:href="#DejaVuSans-3" transform="translate(1619.375 0)"/>
    <use xlink:href="#DejaVuSans-5a" transform="translate(1651.15625 0)"/>
    <use xlink:href="#DejaVuSans-52" transform="translate(1732.9375 0)"/>
    <use xlink:href="#DejaVuSans-55" transform="translate(1794.125 0)"/>
    <use xlink:href="#DejaVuSans-4e" transform="translate(1835.234375 0)"/>
    <use xlink:href="#DejaVuSans-13b0" transform="translate(1893.140625 0)"/>
    <use xlink:href="#DejaVuSans-52" transform="translate(1956.125 0)"/>
    <use xlink:href="#DejaVuSans-5a" transform="translate(2017.3125 0)"/>
    <use xlink:href="#DejaVuSans-56" transform="translate(2099.09375 0)"/>
    <use xlink:href="#DejaVuSans-3" transform="translate(2151.1875 0)"/>
    <use xlink:href="#DejaVuSans-79" transform="translate(2182.96875 0)"/>
    <use xlink:href="#DejaVuSans-3" transform="translate(2214.75 0)"/>
    <use xlink:href="#DejaVuSans-44" transform="translate(2246.53125 0)"/>
    <use xlink:href="#DejaVuSans-3" transform="translate(2307.8125 0)"/>
    <use xlink:href="#DejaVuSans-56" transform="translate(2339.59375 0)"/>
    <use xlink:href="#DejaVuSans-4c" transform="translate(2391.6875 0)"/>
    <use xlink:href="#DejaVuSans-50" transform="translate(2419.46875 0)"/>
    <use xlink:href="#DejaVuSans-4c" transform="translate(2516.875 0)"/>
    <use xlink:href="#DejaVuSans-4f" transform="translate(2544.65625 0)"/>
    <use xlink:href="#DejaVuSans-44" transform="translate(2572.4375 0)"/>
    <use xlink:href="#DejaVuSans-55" transform="translate(2633.71875 0)"/>
    <use xlink:href="#DejaVuSans-3" transform="translate(2674.828125 0)"/>
    <use xlink:href="#DejaVuSans-49" transform="translate(2706.609375 0)"/>
    <use xlink:href="#DejaVuSans-55" transform="translate(2741.8125 0)"/>
    <use xlink:href="#DejaVuSans-44" transform="translate(2782.921875 0)"/>
    <use xlink:href="#DejaVuSans-50" transform="translate(2844.203125 0)"/>
    <use xlink:href="#DejaVuSans-48" transform="translate(2941.609375 0)"/>
    <use xlink:href="#DejaVuSans-3" transform="translate(3003.140625 0)"/>
    <use xlink:href="#DejaVuSans-46" transform="translate(3034.921875 0)"/>
    <use xlink:href="#DejaVuSans-44" transform="translate(3089.90625 0)"/>
    <use xlink:href="#DejaVuSans-51" transform="translate(3151.1875 0)"/>
    <use xlink:href="#DejaVuSans-3" transform="translate(3214.5625 0)"/>
    <use xlink:href="#DejaVuSans-46" transform="translate(3246.34375 0)"/>
    <use xlink:href="#DejaVuSans-52" transform="translate(3301.328125 0)"/>
    <use xlink:href="#DejaVuSans-50" transform="translate(3362.515625 0)"/>
    <use xlink:href="#DejaVuSans-48" transform="translate(3459.921875 0)"/>
    <use xlink:href="#DejaVuSans-3" transform="translate(3521.453125 0)"/>
    <use xlink:href="#DejaVuSans-49" transform="translate(3553.234375 0)"/>
    <use xlink:href="#DejaVuSans-55" transform="translate(3588.4375 0)"/>
    <use xlink:href="#DejaVuSans-52" transform="translate(3627.34375 0)"/>
    <use xlink:href="#DejaVuSans-50" transform="translate(3688.53125 0)"/>
    <use xlink:href="#DejaVuSans-3" transform="translate(3785.9375 0)"/>
    <use xlink:href="#DejaVuSans-47" transform="translate(3817.71875 0)"/>
    <use xlink:href="#DejaVuSans-4c" transform="translate(3881.203125 0)"/>
    <use xlink:href="#DejaVuSans-13ae" transform="translate(3908.984375 0)"/>
    <use xlink:href="#DejaVuSans-48" transform="translate(3977.875 0)"/>
    <use xlink:href="#DejaVuSans-55" transform="translate(4039.40625 0)"/>
    <use xlink:href="#DejaVuSans-48" transform="translate(4078.3125 0)"/>
    <use xlink:href="#DejaVuSans-51" transform="translate(4139.84375 0)"/>
    <use xlink:href="#DejaVuSans-57" transform="translate(4203.21875 0)"/>
    <use xlink:href="#DejaVuSans-3" transform="translate(4242.421875 0)"/>
    <use xlink:href="#DejaVuSans-57" transform="translate(4274.203125 0)"/>
    <use xlink:href="#DejaVuSans-52" transform="translate(4313.40625 0)"/>
    <use xlink:href="#DejaVuSans-52" transform="translate(4374.59375 0)"/>
    <use xlink:href="#DejaVuSans-4f" transform="translate(4435.78125 0)"/>
    <use xlink:href="#DejaVuSans-56" transform="translate(4463.5625 0)"/>
   </g>
  </g>
  <g id="text_3">
   <!-- 01 -->
   <g style="fill: #287e81" transform="translate(69.12 165.168) scale(0.14 -0.14)">
    <defs>
     <path id="DejaVuSans-Bold-13" d="M 2944 2338
Q 2944 3213 2780 3570
Q 2616 3928 2228 3928
Q 1841 3928 1675 3570
Q 1509 3213 1509 2338
Q 1509 1453 1675 1090
Q 1841 728 2228 728
Q 2613 728 2778 1090
Q 2944 1453 2944 2338
z
M 4147 2328
Q 4147 1169 3647 539
Q 3147 -91 2228 -91
Q 1306 -91 806 539
Q 306 1169 306 2328
Q 306 3491 806 4120
Q 1306 4750 2228 4750
Q 3147 4750 3647 4120
Q 4147 3491 4147 2328
z
" transform="scale(0.015625)"/>
     <path id="DejaVuSans-Bold-14" d="M 750 831
L 1813 831
L 1813 3847
L 722 3622
L 722 4441
L 1806 4666
L 2950 4666
L 2950 831
L 4013 831
L 4013 0
L 750 0
L 750 831
z
" transform="scale(0.015625)"/>
    </defs>
    <use xlink:href="#DejaVuSans-Bold-13"/>
    <use xlink:href="#DejaVuSans-Bold-14" transform="translate(69.578125 0)"/>
   </g>
  </g>
  <g id="text_4">
   <!-- Write rendering code -->
   <g style="fill: #172b32" transform="translate(110.592 165.168) scale(0.16 -0.16)">
    <defs>
     <path id="DejaVuSans-Bold-55" d="M 3138 2547
Q 2991 2616 2845 2648
Q 2700 2681 2553 2681
Q 2122 2681 1889 2404
Q 1656 2128 1656 1613
L 1656 0
L 538 0
L 538 3500
L 1656 3500
L 1656 2925
Q 1872 3269 2151 3426
Q 2431 3584 2822 3584
Q 2878 3584 2943 3579
Q 3009 3575 3134 3559
L 3138 2547
z
" transform="scale(0.015625)"/>
     <path id="DejaVuSans-Bold-51" d="M 4056 2131
L 4056 0
L 2931 0
L 2931 347
L 2931 1631
Q 2931 2084 2911 2256
Q 2891 2428 2841 2509
Q 2775 2619 2662 2680
Q 2550 2741 2406 2741
Q 2056 2741 1856 2470
Q 1656 2200 1656 1722
L 1656 0
L 538 0
L 538 3500
L 1656 3500
L 1656 2988
Q 1909 3294 2193 3439
Q 2478 3584 2822 3584
Q 3428 3584 3742 3212
Q 4056 2841 4056 2131
z
" transform="scale(0.015625)"/>
     <path id="DejaVuSans-Bold-4a" d="M 2919 594
Q 2688 288 2409 144
Q 2131 0 1766 0
Q 1125 0 706 504
Q 288 1009 288 1791
Q 288 2575 706 3076
Q 1125 3578 1766 3578
Q 2131 3578 2409 3434
Q 2688 3291 2919 2981
L 2919 3500
L 4044 3500
L 4044 353
Q 4044 -491 3511 -936
Q 2978 -1381 1966 -1381
Q 1638 -1381 1331 -1331
Q 1025 -1281 716 -1178
L 716 -306
Q 1009 -475 1290 -558
Q 1572 -641 1856 -641
Q 2406 -641 2662 -400
Q 2919 -159 2919 353
L 2919 594
z
M 2181 2772
Q 1834 2772 1640 2515
Q 1447 2259 1447 1791
Q 1447 1309 1634 1061
Q 1822 813 2181 813
Q 2531 813 2725 1069
Q 2919 1325 2919 1791
Q 2919 2259 2725 2515
Q 2531 2772 2181 2772
z
" transform="scale(0.015625)"/>
     <path id="DejaVuSans-Bold-46" d="M 3366 3391
L 3366 2478
Q 3138 2634 2908 2709
Q 2678 2784 2431 2784
Q 1963 2784 1702 2511
Q 1441 2238 1441 1747
Q 1441 1256 1702 982
Q 1963 709 2431 709
Q 2694 709 2930 787
Q 3166 866 3366 1019
L 3366 103
Q 3103 6 2833 -42
Q 2563 -91 2291 -91
Q 1344 -91 809 395
Q 275 881 275 1747
Q 275 2613 809 3098
Q 1344 3584 2291 3584
Q 2566 3584 2833 3536
Q 3100 3488 3366 3391
z
" transform="scale(0.015625)"/>
     <path id="DejaVuSans-Bold-52" d="M 2203 2784
Q 1831 2784 1636 2517
Q 1441 2250 1441 1747
Q 1441 1244 1636 976
Q 1831 709 2203 709
Q 2569 709 2762 976
Q 2956 1244 2956 1747
Q 2956 2250 2762 2517
Q 2569 2784 2203 2784
z
M 2203 3584
Q 3106 3584 3614 3096
Q 4122 2609 4122 1747
Q 4122 884 3614 396
Q 3106 -91 2203 -91
Q 1297 -91 786 396
Q 275 884 275 1747
Q 275 2609 786 3096
Q 1297 3584 2203 3584
z
" transform="scale(0.015625)"/>
    </defs>
    <use xlink:href="#DejaVuSans-Bold-3a"/>
    <use xlink:href="#DejaVuSans-Bold-55" transform="translate(108.546875 0)"/>
    <use xlink:href="#DejaVuSans-Bold-4c" transform="translate(157.859375 0)"/>
    <use xlink:href="#DejaVuSans-Bold-57" transform="translate(192.140625 0)"/>
    <use xlink:href="#DejaVuSans-Bold-48" transform="translate(239.9375 0)"/>
    <use xlink:href="#DejaVuSans-Bold-3" transform="translate(307.765625 0)"/>
    <use xlink:href="#DejaVuSans-Bold-55" transform="translate(342.578125 0)"/>
    <use xlink:href="#DejaVuSans-Bold-48" transform="translate(391.890625 0)"/>
    <use xlink:href="#DejaVuSans-Bold-51" transform="translate(459.71875 0)"/>
    <use xlink:href="#DejaVuSans-Bold-47" transform="translate(530.90625 0)"/>
    <use xlink:href="#DejaVuSans-Bold-48" transform="translate(602.484375 0)"/>
    <use xlink:href="#DejaVuSans-Bold-55" transform="translate(670.3125 0)"/>
    <use xlink:href="#DejaVuSans-Bold-4c" transform="translate(719.625 0)"/>
    <use xlink:href="#DejaVuSans-Bold-51" transform="translate(753.90625 0)"/>
    <use xlink:href="#DejaVuSans-Bold-4a" transform="translate(825.09375 0)"/>
    <use xlink:href="#DejaVuSans-Bold-3" transform="translate(896.671875 0)"/>
    <use xlink:href="#DejaVuSans-Bold-46" transform="translate(931.484375 0)"/>
    <use xlink:href="#DejaVuSans-Bold-52" transform="translate(990.765625 0)"/>
    <use xlink:href="#DejaVuSans-Bold-47" transform="translate(1059.46875 0)"/>
    <use xlink:href="#DejaVuSans-Bold-48" transform="translate(1131.046875 0)"/>
   </g>
  </g>
  <g id="text_5">
   <!-- Brief + assets -->
   <g style="fill: #5c6d70" transform="translate(69.12 195.5376) scale(0.11 -0.11)">
    <defs>
     <path id="DejaVuSans-25" d="M 1259 2228
L 1259 519
L 2272 519
Q 2781 519 3026 730
Q 3272 941 3272 1375
Q 3272 1813 3026 2020
Q 2781 2228 2272 2228
L 1259 2228
z
M 1259 4147
L 1259 2741
L 2194 2741
Q 2656 2741 2882 2914
Q 3109 3088 3109 3444
Q 3109 3797 2882 3972
Q 2656 4147 2194 4147
L 1259 4147
z
M 628 4666
L 2241 4666
Q 2963 4666 3353 4366
Q 3744 4066 3744 3513
Q 3744 3084 3544 2831
Q 3344 2578 2956 2516
Q 3422 2416 3680 2098
Q 3938 1781 3938 1306
Q 3938 681 3513 340
Q 3088 0 2303 0
L 628 0
L 628 4666
z
" transform="scale(0.015625)"/>
     <path id="DejaVuSans-e" d="M 2944 4013
L 2944 2272
L 4684 2272
L 4684 1741
L 2944 1741
L 2944 0
L 2419 0
L 2419 1741
L 678 1741
L 678 2272
L 2419 2272
L 2419 4013
L 2944 4013
z
" transform="scale(0.015625)"/>
    </defs>
    <use xlink:href="#DejaVuSans-25"/>
    <use xlink:href="#DejaVuSans-55" transform="translate(68.609375 0)"/>
    <use xlink:href="#DejaVuSans-4c" transform="translate(109.71875 0)"/>
    <use xlink:href="#DejaVuSans-48" transform="translate(137.5 0)"/>
    <use xlink:href="#DejaVuSans-49" transform="translate(199.03125 0)"/>
    <use xlink:href="#DejaVuSans-3" transform="translate(234.234375 0)"/>
    <use xlink:href="#DejaVuSans-e" transform="translate(266.015625 0)"/>
    <use xlink:href="#DejaVuSans-3" transform="translate(349.8125 0)"/>
    <use xlink:href="#DejaVuSans-44" transform="translate(381.59375 0)"/>
    <use xlink:href="#DejaVuSans-56" transform="translate(442.875 0)"/>
    <use xlink:href="#DejaVuSans-56" transform="translate(494.96875 0)"/>
    <use xlink:href="#DejaVuSans-48" transform="translate(547.0625 0)"/>
    <use xlink:href="#DejaVuSans-57" transform="translate(608.59375 0)"/>
    <use xlink:href="#DejaVuSans-56" transform="translate(647.796875 0)"/>
   </g>
  </g>
  <g id="text_6">
   <!-- →  Canvas / WebGL / Manim -->
   <g style="fill: #287e81" transform="translate(69.12 221.6448) scale(0.12 -0.12)">
    <defs>
     <path id="DejaVuSans-c1c" d="M 5050 2147
L 5050 1866
L 3822 638
L 3447 1013
L 4175 1741
L 366 1741
L 366 2272
L 4175 2272
L 3447 3000
L 3822 3375
L 5050 2147
z
" transform="scale(0.015625)"/>
     <path id="DejaVuSans-26" d="M 4122 4306
L 4122 3641
Q 3803 3938 3442 4084
Q 3081 4231 2675 4231
Q 1875 4231 1450 3742
Q 1025 3253 1025 2328
Q 1025 1406 1450 917
Q 1875 428 2675 428
Q 3081 428 3442 575
Q 3803 722 4122 1019
L 4122 359
Q 3791 134 3420 21
Q 3050 -91 2638 -91
Q 1578 -91 968 557
Q 359 1206 359 2328
Q 359 3453 968 4101
Q 1578 4750 2638 4750
Q 3056 4750 3426 4639
Q 3797 4528 4122 4306
z
" transform="scale(0.015625)"/>
     <path id="DejaVuSans-12" d="M 1625 4666
L 2156 4666
L 531 -594
L 0 -594
L 1625 4666
z
" transform="scale(0.015625)"/>
     <path id="DejaVuSans-3a" d="M 213 4666
L 850 4666
L 1831 722
L 2809 4666
L 3519 4666
L 4500 722
L 5478 4666
L 6119 4666
L 4947 0
L 4153 0
L 3169 4050
L 2175 0
L 1381 0
L 213 4666
z
" transform="scale(0.015625)"/>
     <path id="DejaVuSans-2a" d="M 3809 666
L 3809 1919
L 2778 1919
L 2778 2438
L 4434 2438
L 4434 434
Q 4069 175 3628 42
Q 3188 -91 2688 -91
Q 1594 -91 976 548
Q 359 1188 359 2328
Q 359 3472 976 4111
Q 1594 4750 2688 4750
Q 3144 4750 3555 4637
Q 3966 4525 4313 4306
L 4313 3634
Q 3963 3931 3569 4081
Q 3175 4231 2741 4231
Q 1884 4231 1454 3753
Q 1025 3275 1025 2328
Q 1025 1384 1454 906
Q 1884 428 2741 428
Q 3075 428 3337 486
Q 3600 544 3809 666
z
" transform="scale(0.015625)"/>
     <path id="DejaVuSans-2f" d="M 628 4666
L 1259 4666
L 1259 531
L 3531 531
L 3531 0
L 628 0
L 628 4666
z
" transform="scale(0.015625)"/>
     <path id="DejaVuSans-30" d="M 628 4666
L 1569 4666
L 2759 1491
L 3956 4666
L 4897 4666
L 4897 0
L 4281 0
L 4281 4097
L 3078 897
L 2444 897
L 1241 4097
L 1241 0
L 628 0
L 628 4666
z
" transform="scale(0.015625)"/>
    </defs>
    <use xlink:href="#DejaVuSans-c1c"/>
    <use xlink:href="#DejaVuSans-3" transform="translate(83.796875 0)"/>
    <use xlink:href="#DejaVuSans-3" transform="translate(115.578125 0)"/>
    <use xlink:href="#DejaVuSans-26" transform="translate(147.359375 0)"/>
    <use xlink:href="#DejaVuSans-44" transform="translate(217.1875 0)"/>
    <use xlink:href="#DejaVuSans-51" transform="translate(278.46875 0)"/>
    <use xlink:href="#DejaVuSans-59" transform="translate(341.84375 0)"/>
    <use xlink:href="#DejaVuSans-44" transform="translate(401.03125 0)"/>
    <use xlink:href="#DejaVuSans-56" transform="translate(462.3125 0)"/>
    <use xlink:href="#DejaVuSans-3" transform="translate(514.40625 0)"/>
    <use xlink:href="#DejaVuSans-12" transform="translate(546.1875 0)"/>
    <use xlink:href="#DejaVuSans-3" transform="translate(579.875 0)"/>
    <use xlink:href="#DejaVuSans-3a" transform="translate(611.65625 0)"/>
    <use xlink:href="#DejaVuSans-48" transform="translate(704.671875 0)"/>
    <use xlink:href="#DejaVuSans-45" transform="translate(766.203125 0)"/>
    <use xlink:href="#DejaVuSans-2a" transform="translate(829.6875 0)"/>
    <use xlink:href="#DejaVuSans-2f" transform="translate(907.171875 0)"/>
    <use xlink:href="#DejaVuSans-3" transform="translate(962.890625 0)"/>
    <use xlink:href="#DejaVuSans-12" transform="translate(994.671875 0)"/>
    <use xlink:href="#DejaVuSans-3" transform="translate(1028.359375 0)"/>
    <use xlink:href="#DejaVuSans-30" transform="translate(1060.140625 0)"/>
    <use xlink:href="#DejaVuSans-44" transform="translate(1146.421875 0)"/>
    <use xlink:href="#DejaVuSans-51" transform="translate(1207.703125 0)"/>
    <use xlink:href="#DejaVuSans-4c" transform="translate(1271.078125 0)"/>
    <use xlink:href="#DejaVuSans-50" transform="translate(1298.859375 0)"/>
   </g>
  </g>
  <g id="text_7">
   <!-- Code renders the frames -->
   <g style="fill: #5c6d70" transform="translate(69.12 250.416) scale(0.105 -0.105)">
    <use xlink:href="#DejaVuSans-26"/>
    <use xlink:href="#DejaVuSans-52" transform="translate(69.828125 0)"/>
    <use xlink:href="#DejaVuSans-47" transform="translate(131.015625 0)"/>
    <use xlink:href="#DejaVuSans-48" transform="translate(194.5 0)"/>
    <use xlink:href="#DejaVuSans-3" transform="translate(256.03125 0)"/>
    <use xlink:href="#DejaVuSans-55" transform="translate(287.8125 0)"/>
    <use xlink:href="#DejaVuSans-48" transform="translate(326.71875 0)"/>
    <use xlink:href="#DejaVuSans-51" transform="translate(388.25 0)"/>
    <use xlink:href="#DejaVuSans-47" transform="translate(451.625 0)"/>
    <use xlink:href="#DejaVuSans-48" transform="translate(515.109375 0)"/>
    <use xlink:href="#DejaVuSans-55" transform="translate(576.640625 0)"/>
    <use xlink:href="#DejaVuSans-56" transform="translate(617.75 0)"/>
    <use xlink:href="#DejaVuSans-3" transform="translate(669.84375 0)"/>
    <use xlink:href="#DejaVuSans-57" transform="translate(701.625 0)"/>
    <use xlink:href="#DejaVuSans-4b" transform="translate(740.828125 0)"/>
    <use xlink:href="#DejaVuSans-48" transform="translate(804.203125 0)"/>
    <use xlink:href="#DejaVuSans-3" transform="translate(865.734375 0)"/>
    <use xlink:href="#DejaVuSans-49" transform="translate(897.515625 0)"/>
    <use xlink:href="#DejaVuSans-55" transform="translate(932.71875 0)"/>
    <use xlink:href="#DejaVuSans-44" transform="translate(973.828125 0)"/>
    <use xlink:href="#DejaVuSans-50" transform="translate(1035.109375 0)"/>
    <use xlink:href="#DejaVuSans-48" transform="translate(1132.515625 0)"/>
    <use xlink:href="#DejaVuSans-56" transform="translate(1194.046875 0)"/>
   </g>
  </g>
  <g id="text_8">
   <!-- 02 -->
   <g style="fill: #287e81" transform="translate(506.88 165.168) scale(0.14 -0.14)">
    <defs>
     <path id="DejaVuSans-Bold-15" d="M 1844 884
L 3897 884
L 3897 0
L 506 0
L 506 884
L 2209 2388
Q 2438 2594 2547 2791
Q 2656 2988 2656 3200
Q 2656 3528 2436 3728
Q 2216 3928 1850 3928
Q 1569 3928 1234 3808
Q 900 3688 519 3450
L 519 4475
Q 925 4609 1322 4679
Q 1719 4750 2100 4750
Q 2938 4750 3402 4381
Q 3866 4013 3866 3353
Q 3866 2972 3669 2642
Q 3472 2313 2841 1759
L 1844 884
z
" transform="scale(0.015625)"/>
    </defs>
    <use xlink:href="#DejaVuSans-Bold-13"/>
    <use xlink:href="#DejaVuSans-Bold-15" transform="translate(69.578125 0)"/>
   </g>
  </g>
  <g id="text_9">
   <!-- Transform supplied media -->
   <g style="fill: #172b32" transform="translate(548.352 165.168) scale(0.16 -0.16)">
    <defs>
     <path id="DejaVuSans-Bold-37" d="M 31 4666
L 4331 4666
L 4331 3756
L 2784 3756
L 2784 0
L 1581 0
L 1581 3756
L 31 3756
L 31 4666
z
" transform="scale(0.015625)"/>
     <path id="DejaVuSans-Bold-49" d="M 2841 4863
L 2841 4128
L 2222 4128
Q 1984 4128 1890 4042
Q 1797 3956 1797 3744
L 1797 3500
L 2753 3500
L 2753 2700
L 1797 2700
L 1797 0
L 678 0
L 678 2700
L 122 2700
L 122 3500
L 678 3500
L 678 3744
Q 678 4316 997 4589
Q 1316 4863 1984 4863
L 2841 4863
z
" transform="scale(0.015625)"/>
     <path id="DejaVuSans-Bold-58" d="M 500 1363
L 500 3500
L 1625 3500
L 1625 3150
Q 1625 2866 1622 2436
Q 1619 2006 1619 1863
Q 1619 1441 1641 1255
Q 1663 1069 1716 984
Q 1784 875 1895 815
Q 2006 756 2150 756
Q 2500 756 2700 1025
Q 2900 1294 2900 1772
L 2900 3500
L 4019 3500
L 4019 0
L 2900 0
L 2900 506
Q 2647 200 2364 54
Q 2081 -91 1741 -91
Q 1134 -91 817 281
Q 500 653 500 1363
z
" transform="scale(0.015625)"/>
    </defs>
    <use xlink:href="#DejaVuSans-Bold-37"/>
    <use xlink:href="#DejaVuSans-Bold-55" transform="translate(57.234375 0)"/>
    <use xlink:href="#DejaVuSans-Bold-44" transform="translate(106.546875 0)"/>
    <use xlink:href="#DejaVuSans-Bold-51" transform="translate(174.03125 0)"/>
    <use xlink:href="#DejaVuSans-Bold-56" transform="translate(245.21875 0)"/>
    <use xlink:href="#DejaVuSans-Bold-49" transform="translate(304.734375 0)"/>
    <use xlink:href="#DejaVuSans-Bold-52" transform="translate(348.234375 0)"/>
    <use xlink:href="#DejaVuSans-Bold-55" transform="translate(416.9375 0)"/>
    <use xlink:href="#DejaVuSans-Bold-50" transform="translate(466.25 0)"/>
    <use xlink:href="#DejaVuSans-Bold-3" transform="translate(570.453125 0)"/>
    <use xlink:href="#DejaVuSans-Bold-56" transform="translate(605.265625 0)"/>
    <use xlink:href="#DejaVuSans-Bold-58" transform="translate(664.78125 0)"/>
    <use xlink:href="#DejaVuSans-Bold-53" transform="translate(735.96875 0)"/>
    <use xlink:href="#DejaVuSans-Bold-53" transform="translate(807.546875 0)"/>
    <use xlink:href="#DejaVuSans-Bold-4f" transform="translate(879.125 0)"/>
    <use xlink:href="#DejaVuSans-Bold-4c" transform="translate(913.40625 0)"/>
    <use xlink:href="#DejaVuSans-Bold-48" transform="translate(947.6875 0)"/>
    <use xlink:href="#DejaVuSans-Bold-47" transform="translate(1015.515625 0)"/>
    <use xlink:href="#DejaVuSans-Bold-3" transform="translate(1087.09375 0)"/>
    <use xlink:href="#DejaVuSans-Bold-50" transform="translate(1121.90625 0)"/>
    <use xlink:href="#DejaVuSans-Bold-48" transform="translate(1226.109375 0)"/>
    <use xlink:href="#DejaVuSans-Bold-47" transform="translate(1293.9375 0)"/>
    <use xlink:href="#DejaVuSans-Bold-4c" transform="translate(1365.515625 0)"/>
    <use xlink:href="#DejaVuSans-Bold-44" transform="translate(1399.796875 0)"/>
   </g>
  </g>
  <g id="text_10">
   <!-- Footage, audio or images -->
   <g style="fill: #5c6d70" transform="translate(506.88 195.5376) scale(0.11 -0.11)">
    <defs>
     <path id="DejaVuSans-4a" d="M 2906 1791
Q 2906 2416 2648 2759
Q 2391 3103 1925 3103
Q 1463 3103 1205 2759
Q 947 2416 947 1791
Q 947 1169 1205 825
Q 1463 481 1925 481
Q 2391 481 2648 825
Q 2906 1169 2906 1791
z
M 3481 434
Q 3481 -459 3084 -895
Q 2688 -1331 1869 -1331
Q 1566 -1331 1297 -1286
Q 1028 -1241 775 -1147
L 775 -588
Q 1028 -725 1275 -790
Q 1522 -856 1778 -856
Q 2344 -856 2625 -561
Q 2906 -266 2906 331
L 2906 616
Q 2728 306 2450 153
Q 2172 0 1784 0
Q 1141 0 747 490
Q 353 981 353 1791
Q 353 2603 747 3093
Q 1141 3584 1784 3584
Q 2172 3584 2450 3431
Q 2728 3278 2906 2969
L 2906 3500
L 3481 3500
L 3481 434
z
" transform="scale(0.015625)"/>
     <path id="DejaVuSans-f" d="M 750 794
L 1409 794
L 1409 256
L 897 -744
L 494 -744
L 750 256
L 750 794
z
" transform="scale(0.015625)"/>
    </defs>
    <use xlink:href="#DejaVuSans-29"/>
    <use xlink:href="#DejaVuSans-52" transform="translate(53.953125 0)"/>
    <use xlink:href="#DejaVuSans-52" transform="translate(115.140625 0)"/>
    <use xlink:href="#DejaVuSans-57" transform="translate(176.328125 0)"/>
    <use xlink:href="#DejaVuSans-44" transform="translate(215.53125 0)"/>
    <use xlink:href="#DejaVuSans-4a" transform="translate(276.8125 0)"/>
    <use xlink:href="#DejaVuSans-48" transform="translate(340.296875 0)"/>
    <use xlink:href="#DejaVuSans-f" transform="translate(401.828125 0)"/>
    <use xlink:href="#DejaVuSans-3" transform="translate(433.609375 0)"/>
    <use xlink:href="#DejaVuSans-44" transform="translate(465.390625 0)"/>
    <use xlink:href="#DejaVuSans-58" transform="translate(526.671875 0)"/>
    <use xlink:href="#DejaVuSans-47" transform="translate(590.046875 0)"/>
    <use xlink:href="#DejaVuSans-4c" transform="translate(653.53125 0)"/>
    <use xlink:href="#DejaVuSans-52" transform="translate(681.3125 0)"/>
    <use xlink:href="#DejaVuSans-3" transform="translate(742.5 0)"/>
    <use xlink:href="#DejaVuSans-52" transform="translate(774.28125 0)"/>
    <use xlink:href="#DejaVuSans-55" transform="translate(835.46875 0)"/>
    <use xlink:href="#DejaVuSans-3" transform="translate(876.578125 0)"/>
    <use xlink:href="#DejaVuSans-4c" transform="translate(908.359375 0)"/>
    <use xlink:href="#DejaVuSans-50" transform="translate(936.140625 0)"/>
    <use xlink:href="#DejaVuSans-44" transform="translate(1033.546875 0)"/>
    <use xlink:href="#DejaVuSans-4a" transform="translate(1094.828125 0)"/>
    <use xlink:href="#DejaVuSans-48" transform="translate(1158.3125 0)"/>
    <use xlink:href="#DejaVuSans-56" transform="translate(1219.84375 0)"/>
   </g>
  </g>
  <g id="text_11">
   <!-- →  Redraw / edit / composite -->
   <g style="fill: #287e81" transform="translate(506.88 221.6448) scale(0.12 -0.12)">
    <defs>
     <path id="DejaVuSans-35" d="M 2841 2188
Q 3044 2119 3236 1894
Q 3428 1669 3622 1275
L 4263 0
L 3584 0
L 2988 1197
Q 2756 1666 2539 1819
Q 2322 1972 1947 1972
L 1259 1972
L 1259 0
L 628 0
L 628 4666
L 2053 4666
Q 2853 4666 3247 4331
Q 3641 3997 3641 3322
Q 3641 2881 3436 2590
Q 3231 2300 2841 2188
z
M 1259 4147
L 1259 2491
L 2053 2491
Q 2509 2491 2742 2702
Q 2975 2913 2975 3322
Q 2975 3731 2742 3939
Q 2509 4147 2053 4147
L 1259 4147
z
" transform="scale(0.015625)"/>
     <path id="DejaVuSans-53" d="M 1159 525
L 1159 -1331
L 581 -1331
L 581 3500
L 1159 3500
L 1159 2969
Q 1341 3281 1617 3432
Q 1894 3584 2278 3584
Q 2916 3584 3314 3078
Q 3713 2572 3713 1747
Q 3713 922 3314 415
Q 2916 -91 2278 -91
Q 1894 -91 1617 61
Q 1341 213 1159 525
z
M 3116 1747
Q 3116 2381 2855 2742
Q 2594 3103 2138 3103
Q 1681 3103 1420 2742
Q 1159 2381 1159 1747
Q 1159 1113 1420 752
Q 1681 391 2138 391
Q 2594 391 2855 752
Q 3116 1113 3116 1747
z
" transform="scale(0.015625)"/>
    </defs>
    <use xlink:href="#DejaVuSans-c1c"/>
    <use xlink:href="#DejaVuSans-3" transform="translate(83.796875 0)"/>
    <use xlink:href="#DejaVuSans-3" transform="translate(115.578125 0)"/>
    <use xlink:href="#DejaVuSans-35" transform="translate(147.359375 0)"/>
    <use xlink:href="#DejaVuSans-48" transform="translate(212.359375 0)"/>
    <use xlink:href="#DejaVuSans-47" transform="translate(273.890625 0)"/>
    <use xlink:href="#DejaVuSans-55" transform="translate(337.375 0)"/>
    <use xlink:href="#DejaVuSans-44" transform="translate(378.484375 0)"/>
    <use xlink:href="#DejaVuSans-5a" transform="translate(439.765625 0)"/>
    <use xlink:href="#DejaVuSans-3" transform="translate(521.546875 0)"/>
    <use xlink:href="#DejaVuSans-12" transform="translate(553.328125 0)"/>
    <use xlink:href="#DejaVuSans-3" transform="translate(587.015625 0)"/>
    <use xlink:href="#DejaVuSans-48" transform="translate(618.796875 0)"/>
    <use xlink:href="#DejaVuSans-47" transform="translate(680.328125 0)"/>
    <use xlink:href="#DejaVuSans-4c" transform="translate(743.8125 0)"/>
    <use xlink:href="#DejaVuSans-57" transform="translate(771.59375 0)"/>
    <use xlink:href="#DejaVuSans-3" transform="translate(810.796875 0)"/>
    <use xlink:href="#DejaVuSans-12" transform="translate(842.578125 0)"/>
    <use xlink:href="#DejaVuSans-3" transform="translate(876.265625 0)"/>
    <use xlink:href="#DejaVuSans-46" transform="translate(908.046875 0)"/>
    <use xlink:href="#DejaVuSans-52" transform="translate(963.03125 0)"/>
    <use xlink:href="#DejaVuSans-50" transform="translate(1024.21875 0)"/>
    <use xlink:href="#DejaVuSans-53" transform="translate(1121.625 0)"/>
    <use xlink:href="#DejaVuSans-52" transform="translate(1185.109375 0)"/>
    <use xlink:href="#DejaVuSans-56" transform="translate(1246.296875 0)"/>
    <use xlink:href="#DejaVuSans-4c" transform="translate(1298.390625 0)"/>
    <use xlink:href="#DejaVuSans-57" transform="translate(1326.171875 0)"/>
    <use xlink:href="#DejaVuSans-48" transform="translate(1365.375 0)"/>
   </g>
  </g>
  <g id="text_12">
   <!-- Existing inputs shape the result -->
   <g style="fill: #5c6d70" transform="translate(506.88 250.416) scale(0.105 -0.105)">
    <defs>
     <path id="DejaVuSans-28" d="M 628 4666
L 3578 4666
L 3578 4134
L 1259 4134
L 1259 2753
L 3481 2753
L 3481 2222
L 1259 2222
L 1259 531
L 3634 531
L 3634 0
L 628 0
L 628 4666
z
" transform="scale(0.015625)"/>
     <path id="DejaVuSans-5b" d="M 3513 3500
L 2247 1797
L 3578 0
L 2900 0
L 1881 1375
L 863 0
L 184 0
L 1544 1831
L 300 3500
L 978 3500
L 1906 2253
L 2834 3500
L 3513 3500
z
" transform="scale(0.015625)"/>
    </defs>
    <use xlink:href="#DejaVuSans-28"/>
    <use xlink:href="#DejaVuSans-5b" transform="translate(63.1875 0)"/>
    <use xlink:href="#DejaVuSans-4c" transform="translate(122.375 0)"/>
    <use xlink:href="#DejaVuSans-56" transform="translate(150.15625 0)"/>
    <use xlink:href="#DejaVuSans-57" transform="translate(202.25 0)"/>
    <use xlink:href="#DejaVuSans-4c" transform="translate(241.453125 0)"/>
    <use xlink:href="#DejaVuSans-51" transform="translate(269.234375 0)"/>
    <use xlink:href="#DejaVuSans-4a" transform="translate(332.609375 0)"/>
    <use xlink:href="#DejaVuSans-3" transform="translate(396.09375 0)"/>
    <use xlink:href="#DejaVuSans-4c" transform="translate(427.875 0)"/>
    <use xlink:href="#DejaVuSans-51" transform="translate(455.65625 0)"/>
    <use xlink:href="#DejaVuSans-53" transform="translate(519.03125 0)"/>
    <use xlink:href="#DejaVuSans-58" transform="translate(582.515625 0)"/>
    <use xlink:href="#DejaVuSans-57" transform="translate(645.890625 0)"/>
    <use xlink:href="#DejaVuSans-56" transform="translate(685.09375 0)"/>
    <use xlink:href="#DejaVuSans-3" transform="translate(737.1875 0)"/>
    <use xlink:href="#DejaVuSans-56" transform="translate(768.96875 0)"/>
    <use xlink:href="#DejaVuSans-4b" transform="translate(821.0625 0)"/>
    <use xlink:href="#DejaVuSans-44" transform="translate(884.4375 0)"/>
    <use xlink:href="#DejaVuSans-53" transform="translate(945.71875 0)"/>
    <use xlink:href="#DejaVuSans-48" transform="translate(1009.203125 0)"/>
    <use xlink:href="#DejaVuSans-3" transform="translate(1070.734375 0)"/>
    <use xlink:href="#DejaVuSans-57" transform="translate(1102.515625 0)"/>
    <use xlink:href="#DejaVuSans-4b" transform="translate(1141.71875 0)"/>
    <use xlink:href="#DejaVuSans-48" transform="translate(1205.09375 0)"/>
    <use xlink:href="#DejaVuSans-3" transform="translate(1266.625 0)"/>
    <use xlink:href="#DejaVuSans-55" transform="translate(1298.40625 0)"/>
    <use xlink:href="#DejaVuSans-48" transform="translate(1337.3125 0)"/>
    <use xlink:href="#DejaVuSans-56" transform="translate(1398.84375 0)"/>
    <use xlink:href="#DejaVuSans-58" transform="translate(1450.9375 0)"/>
    <use xlink:href="#DejaVuSans-4f" transform="translate(1514.3125 0)"/>
    <use xlink:href="#DejaVuSans-57" transform="translate(1542.09375 0)"/>
   </g>
  </g>
  <g id="text_13">
   <!-- 03 -->
   <g style="fill: #287e81" transform="translate(69.12 330.336) scale(0.14 -0.14)">
    <defs>
     <path id="DejaVuSans-Bold-16" d="M 2981 2516
Q 3453 2394 3698 2092
Q 3944 1791 3944 1325
Q 3944 631 3412 270
Q 2881 -91 1863 -91
Q 1503 -91 1142 -33
Q 781 25 428 141
L 428 1069
Q 766 900 1098 814
Q 1431 728 1753 728
Q 2231 728 2486 893
Q 2741 1059 2741 1369
Q 2741 1688 2480 1852
Q 2219 2016 1709 2016
L 1228 2016
L 1228 2791
L 1734 2791
Q 2188 2791 2409 2933
Q 2631 3075 2631 3366
Q 2631 3634 2415 3781
Q 2200 3928 1806 3928
Q 1516 3928 1219 3862
Q 922 3797 628 3669
L 628 4550
Q 984 4650 1334 4700
Q 1684 4750 2022 4750
Q 2931 4750 3382 4451
Q 3834 4153 3834 3553
Q 3834 3144 3618 2883
Q 3403 2622 2981 2516
z
" transform="scale(0.015625)"/>
    </defs>
    <use xlink:href="#DejaVuSans-Bold-13"/>
    <use xlink:href="#DejaVuSans-Bold-16" transform="translate(69.578125 0)"/>
   </g>
  </g>
  <g id="text_14">
   <!-- Direct external models -->
   <g style="fill: #172b32" transform="translate(110.592 330.336) scale(0.16 -0.16)">
    <defs>
     <path id="DejaVuSans-Bold-27" d="M 1791 3756
L 1791 909
L 2222 909
Q 2959 909 3348 1275
Q 3738 1641 3738 2338
Q 3738 3031 3350 3393
Q 2963 3756 2222 3756
L 1791 3756
z
M 588 4666
L 1856 4666
Q 2919 4666 3439 4514
Q 3959 4363 4331 4000
Q 4659 3684 4818 3271
Q 4978 2859 4978 2338
Q 4978 1809 4818 1395
Q 4659 981 4331 666
Q 3956 303 3431 151
Q 2906 0 1856 0
L 588 0
L 588 4666
z
" transform="scale(0.015625)"/>
    </defs>
    <use xlink:href="#DejaVuSans-Bold-27"/>
    <use xlink:href="#DejaVuSans-Bold-4c" transform="translate(83.015625 0)"/>
    <use xlink:href="#DejaVuSans-Bold-55" transform="translate(117.296875 0)"/>
    <use xlink:href="#DejaVuSans-Bold-48" transform="translate(166.609375 0)"/>
    <use xlink:href="#DejaVuSans-Bold-46" transform="translate(234.4375 0)"/>
    <use xlink:href="#DejaVuSans-Bold-57" transform="translate(293.71875 0)"/>
    <use xlink:href="#DejaVuSans-Bold-3" transform="translate(341.515625 0)"/>
    <use xlink:href="#DejaVuSans-Bold-48" transform="translate(376.328125 0)"/>
    <use xlink:href="#DejaVuSans-Bold-5b" transform="translate(444.15625 0)"/>
    <use xlink:href="#DejaVuSans-Bold-57" transform="translate(508.65625 0)"/>
    <use xlink:href="#DejaVuSans-Bold-48" transform="translate(556.453125 0)"/>
    <use xlink:href="#DejaVuSans-Bold-55" transform="translate(624.28125 0)"/>
    <use xlink:href="#DejaVuSans-Bold-51" transform="translate(673.59375 0)"/>
    <use xlink:href="#DejaVuSans-Bold-44" transform="translate(744.78125 0)"/>
    <use xlink:href="#DejaVuSans-Bold-4f" transform="translate(812.265625 0)"/>
    <use xlink:href="#DejaVuSans-Bold-3" transform="translate(846.546875 0)"/>
    <use xlink:href="#DejaVuSans-Bold-50" transform="translate(881.359375 0)"/>
    <use xlink:href="#DejaVuSans-Bold-52" transform="translate(985.5625 0)"/>
    <use xlink:href="#DejaVuSans-Bold-47" transform="translate(1054.265625 0)"/>
    <use xlink:href="#DejaVuSans-Bold-48" transform="translate(1125.84375 0)"/>
    <use xlink:href="#DejaVuSans-Bold-4f" transform="translate(1193.671875 0)"/>
    <use xlink:href="#DejaVuSans-Bold-56" transform="translate(1227.953125 0)"/>
   </g>
  </g>
  <g id="text_15">
   <!-- Storyboard + prompts -->
   <g style="fill: #5c6d70" transform="translate(69.12 360.7056) scale(0.11 -0.11)">
    <defs>
     <path id="DejaVuSans-36" d="M 3425 4513
L 3425 3897
Q 3066 4069 2747 4153
Q 2428 4238 2131 4238
Q 1616 4238 1336 4038
Q 1056 3838 1056 3469
Q 1056 3159 1242 3001
Q 1428 2844 1947 2747
L 2328 2669
Q 3034 2534 3370 2195
Q 3706 1856 3706 1288
Q 3706 609 3251 259
Q 2797 -91 1919 -91
Q 1588 -91 1214 -16
Q 841 59 441 206
L 441 856
Q 825 641 1194 531
Q 1563 422 1919 422
Q 2459 422 2753 634
Q 3047 847 3047 1241
Q 3047 1584 2836 1778
Q 2625 1972 2144 2069
L 1759 2144
Q 1053 2284 737 2584
Q 422 2884 422 3419
Q 422 4038 858 4394
Q 1294 4750 2059 4750
Q 2388 4750 2728 4690
Q 3069 4631 3425 4513
z
" transform="scale(0.015625)"/>
     <path id="DejaVuSans-5c" d="M 2059 -325
Q 1816 -950 1584 -1140
Q 1353 -1331 966 -1331
L 506 -1331
L 506 -850
L 844 -850
Q 1081 -850 1212 -737
Q 1344 -625 1503 -206
L 1606 56
L 191 3500
L 800 3500
L 1894 763
L 2988 3500
L 3597 3500
L 2059 -325
z
" transform="scale(0.015625)"/>
    </defs>
    <use xlink:href="#DejaVuSans-36"/>
    <use xlink:href="#DejaVuSans-57" transform="translate(63.484375 0)"/>
    <use xlink:href="#DejaVuSans-52" transform="translate(102.6875 0)"/>
    <use xlink:href="#DejaVuSans-55" transform="translate(163.875 0)"/>
    <use xlink:href="#DejaVuSans-5c" transform="translate(204.984375 0)"/>
    <use xlink:href="#DejaVuSans-45" transform="translate(264.171875 0)"/>
    <use xlink:href="#DejaVuSans-52" transform="translate(327.65625 0)"/>
    <use xlink:href="#DejaVuSans-44" transform="translate(388.84375 0)"/>
    <use xlink:href="#DejaVuSans-55" transform="translate(450.125 0)"/>
    <use xlink:href="#DejaVuSans-47" transform="translate(489.484375 0)"/>
    <use xlink:href="#DejaVuSans-3" transform="translate(552.96875 0)"/>
    <use xlink:href="#DejaVuSans-e" transform="translate(584.75 0)"/>
    <use xlink:href="#DejaVuSans-3" transform="translate(668.546875 0)"/>
    <use xlink:href="#DejaVuSans-53" transform="translate(700.328125 0)"/>
    <use xlink:href="#DejaVuSans-55" transform="translate(763.8125 0)"/>
    <use xlink:href="#DejaVuSans-52" transform="translate(802.71875 0)"/>
    <use xlink:href="#DejaVuSans-50" transform="translate(863.90625 0)"/>
    <use xlink:href="#DejaVuSans-53" transform="translate(961.3125 0)"/>
    <use xlink:href="#DejaVuSans-57" transform="translate(1024.796875 0)"/>
    <use xlink:href="#DejaVuSans-56" transform="translate(1064 0)"/>
   </g>
  </g>
  <g id="text_16">
   <!-- →  Image / video / audio tools -->
   <g style="fill: #287e81" transform="translate(69.12 386.8128) scale(0.12 -0.12)">
    <defs>
     <path id="DejaVuSans-2c" d="M 628 4666
L 1259 4666
L 1259 0
L 628 0
L 628 4666
z
" transform="scale(0.015625)"/>
    </defs>
    <use xlink:href="#DejaVuSans-c1c"/>
    <use xlink:href="#DejaVuSans-3" transform="translate(83.796875 0)"/>
    <use xlink:href="#DejaVuSans-3" transform="translate(115.578125 0)"/>
    <use xlink:href="#DejaVuSans-2c" transform="translate(147.359375 0)"/>
    <use xlink:href="#DejaVuSans-50" transform="translate(176.859375 0)"/>
    <use xlink:href="#DejaVuSans-44" transform="translate(274.265625 0)"/>
    <use xlink:href="#DejaVuSans-4a" transform="translate(335.546875 0)"/>
    <use xlink:href="#DejaVuSans-48" transform="translate(399.03125 0)"/>
    <use xlink:href="#DejaVuSans-3" transform="translate(460.5625 0)"/>
    <use xlink:href="#DejaVuSans-12" transform="translate(492.34375 0)"/>
    <use xlink:href="#DejaVuSans-3" transform="translate(526.03125 0)"/>
    <use xlink:href="#DejaVuSans-59" transform="translate(557.8125 0)"/>
    <use xlink:href="#DejaVuSans-4c" transform="translate(617 0)"/>
    <use xlink:href="#DejaVuSans-47" transform="translate(644.78125 0)"/>
    <use xlink:href="#DejaVuSans-48" transform="translate(708.265625 0)"/>
    <use xlink:href="#DejaVuSans-52" transform="translate(769.796875 0)"/>
    <use xlink:href="#DejaVuSans-3" transform="translate(830.984375 0)"/>
    <use xlink:href="#DejaVuSans-12" transform="translate(862.765625 0)"/>
    <use xlink:href="#DejaVuSans-3" transform="translate(896.453125 0)"/>
    <use xlink:href="#DejaVuSans-44" transform="translate(928.234375 0)"/>
    <use xlink:href="#DejaVuSans-58" transform="translate(989.515625 0)"/>
    <use xlink:href="#DejaVuSans-47" transform="translate(1052.890625 0)"/>
    <use xlink:href="#DejaVuSans-4c" transform="translate(1116.375 0)"/>
    <use xlink:href="#DejaVuSans-52" transform="translate(1144.15625 0)"/>
    <use xlink:href="#DejaVuSans-3" transform="translate(1205.34375 0)"/>
    <use xlink:href="#DejaVuSans-57" transform="translate(1237.125 0)"/>
    <use xlink:href="#DejaVuSans-52" transform="translate(1276.328125 0)"/>
    <use xlink:href="#DejaVuSans-52" transform="translate(1337.515625 0)"/>
    <use xlink:href="#DejaVuSans-4f" transform="translate(1398.703125 0)"/>
    <use xlink:href="#DejaVuSans-56" transform="translate(1426.484375 0)"/>
   </g>
  </g>
  <g id="text_17">
   <!-- Models supply media; tools assemble it -->
   <g style="fill: #5c6d70" transform="translate(69.12 415.584) scale(0.105 -0.105)">
    <defs>
     <path id="DejaVuSans-1e" d="M 750 3309
L 1409 3309
L 1409 2516
L 750 2516
L 750 3309
z
M 750 794
L 1409 794
L 1409 256
L 897 -744
L 494 -744
L 750 256
L 750 794
z
" transform="scale(0.015625)"/>
    </defs>
    <use xlink:href="#DejaVuSans-30"/>
    <use xlink:href="#DejaVuSans-52" transform="translate(86.28125 0)"/>
    <use xlink:href="#DejaVuSans-47" transform="translate(147.46875 0)"/>
    <use xlink:href="#DejaVuSans-48" transform="translate(210.953125 0)"/>
    <use xlink:href="#DejaVuSans-4f" transform="translate(272.484375 0)"/>
    <use xlink:href="#DejaVuSans-56" transform="translate(300.265625 0)"/>
    <use xlink:href="#DejaVuSans-3" transform="translate(352.359375 0)"/>
    <use xlink:href="#DejaVuSans-56" transform="translate(384.140625 0)"/>
    <use xlink:href="#DejaVuSans-58" transform="translate(436.234375 0)"/>
    <use xlink:href="#DejaVuSans-53" transform="translate(499.609375 0)"/>
    <use xlink:href="#DejaVuSans-53" transform="translate(563.09375 0)"/>
    <use xlink:href="#DejaVuSans-4f" transform="translate(626.578125 0)"/>
    <use xlink:href="#DejaVuSans-5c" transform="translate(654.359375 0)"/>
    <use xlink:href="#DejaVuSans-3" transform="translate(713.546875 0)"/>
    <use xlink:href="#DejaVuSans-50" transform="translate(745.328125 0)"/>
    <use xlink:href="#DejaVuSans-48" transform="translate(842.734375 0)"/>
    <use xlink:href="#DejaVuSans-47" transform="translate(904.265625 0)"/>
    <use xlink:href="#DejaVuSans-4c" transform="translate(967.75 0)"/>
    <use xlink:href="#DejaVuSans-44" transform="translate(995.53125 0)"/>
    <use xlink:href="#DejaVuSans-1e" transform="translate(1056.8125 0)"/>
    <use xlink:href="#DejaVuSans-3" transform="translate(1090.5 0)"/>
    <use xlink:href="#DejaVuSans-57" transform="translate(1122.28125 0)"/>
    <use xlink:href="#DejaVuSans-52" transform="translate(1161.484375 0)"/>
    <use xlink:href="#DejaVuSans-52" transform="translate(1222.671875 0)"/>
    <use xlink:href="#DejaVuSans-4f" transform="translate(1283.859375 0)"/>
    <use xlink:href="#DejaVuSans-56" transform="translate(1311.640625 0)"/>
    <use xlink:href="#DejaVuSans-3" transform="translate(1363.734375 0)"/>
    <use xlink:href="#DejaVuSans-44" transform="translate(1395.515625 0)"/>
    <use xlink:href="#DejaVuSans-56" transform="translate(1456.796875 0)"/>
    <use xlink:href="#DejaVuSans-56" transform="translate(1508.890625 0)"/>
    <use xlink:href="#DejaVuSans-48" transform="translate(1560.984375 0)"/>
    <use xlink:href="#DejaVuSans-50" transform="translate(1622.515625 0)"/>
    <use xlink:href="#DejaVuSans-45" transform="translate(1719.921875 0)"/>
    <use xlink:href="#DejaVuSans-4f" transform="translate(1783.40625 0)"/>
    <use xlink:href="#DejaVuSans-48" transform="translate(1811.1875 0)"/>
    <use xlink:href="#DejaVuSans-3" transform="translate(1872.71875 0)"/>
    <use xlink:href="#DejaVuSans-4c" transform="translate(1904.5 0)"/>
    <use xlink:href="#DejaVuSans-57" transform="translate(1932.28125 0)"/>
   </g>
  </g>
  <g id="text_18">
   <!-- 04 -->
   <g style="fill: #287e81" transform="translate(506.88 330.336) scale(0.14 -0.14)">
    <defs>
     <path id="DejaVuSans-Bold-17" d="M 2356 3675
L 1038 1722
L 2356 1722
L 2356 3675
z
M 2156 4666
L 3494 4666
L 3494 1722
L 4159 1722
L 4159 850
L 3494 850
L 3494 0
L 2356 0
L 2356 850
L 288 850
L 288 1881
L 2156 4666
z
" transform="scale(0.015625)"/>
    </defs>
    <use xlink:href="#DejaVuSans-Bold-13"/>
    <use xlink:href="#DejaVuSans-Bold-17" transform="translate(69.578125 0)"/>
   </g>
  </g>
  <g id="text_19">
   <!-- Build an app or game -->
   <g style="fill: #172b32" transform="translate(548.352 330.336) scale(0.16 -0.16)">
    <defs>
     <path id="DejaVuSans-Bold-25" d="M 2456 2859
Q 2741 2859 2887 2984
Q 3034 3109 3034 3353
Q 3034 3594 2887 3720
Q 2741 3847 2456 3847
L 1791 3847
L 1791 2859
L 2456 2859
z
M 2497 819
Q 2859 819 3042 972
Q 3225 1125 3225 1434
Q 3225 1738 3044 1889
Q 2863 2041 2497 2041
L 1791 2041
L 1791 819
L 2497 819
z
M 3616 2497
Q 4003 2384 4215 2081
Q 4428 1778 4428 1338
Q 4428 663 3972 331
Q 3516 0 2584 0
L 588 0
L 588 4666
L 2394 4666
Q 3366 4666 3802 4372
Q 4238 4078 4238 3431
Q 4238 3091 4078 2852
Q 3919 2613 3616 2497
z
" transform="scale(0.015625)"/>
    </defs>
    <use xlink:href="#DejaVuSans-Bold-25"/>
    <use xlink:href="#DejaVuSans-Bold-58" transform="translate(76.21875 0)"/>
    <use xlink:href="#DejaVuSans-Bold-4c" transform="translate(147.40625 0)"/>
    <use xlink:href="#DejaVuSans-Bold-4f" transform="translate(181.6875 0)"/>
    <use xlink:href="#DejaVuSans-Bold-47" transform="translate(215.96875 0)"/>
    <use xlink:href="#DejaVuSans-Bold-3" transform="translate(287.546875 0)"/>
    <use xlink:href="#DejaVuSans-Bold-44" transform="translate(322.359375 0)"/>
    <use xlink:href="#DejaVuSans-Bold-51" transform="translate(389.84375 0)"/>
    <use xlink:href="#DejaVuSans-Bold-3" transform="translate(461.03125 0)"/>
    <use xlink:href="#DejaVuSans-Bold-44" transform="translate(495.84375 0)"/>
    <use xlink:href="#DejaVuSans-Bold-53" transform="translate(563.328125 0)"/>
    <use xlink:href="#DejaVuSans-Bold-53" transform="translate(634.90625 0)"/>
    <use xlink:href="#DejaVuSans-Bold-3" transform="translate(706.484375 0)"/>
    <use xlink:href="#DejaVuSans-Bold-52" transform="translate(741.296875 0)"/>
    <use xlink:href="#DejaVuSans-Bold-55" transform="translate(810 0)"/>
    <use xlink:href="#DejaVuSans-Bold-3" transform="translate(859.3125 0)"/>
    <use xlink:href="#DejaVuSans-Bold-4a" transform="translate(894.125 0)"/>
    <use xlink:href="#DejaVuSans-Bold-44" transform="translate(965.703125 0)"/>
    <use xlink:href="#DejaVuSans-Bold-50" transform="translate(1033.1875 0)"/>
    <use xlink:href="#DejaVuSans-Bold-48" transform="translate(1137.390625 0)"/>
   </g>
  </g>
  <g id="text_20">
   <!-- Requirements + code -->
   <g style="fill: #5c6d70" transform="translate(506.88 360.7056) scale(0.11 -0.11)">
    <defs>
     <path id="DejaVuSans-54" d="M 947 1747
Q 947 1113 1208 752
Q 1469 391 1925 391
Q 2381 391 2643 752
Q 2906 1113 2906 1747
Q 2906 2381 2643 2742
Q 2381 3103 1925 3103
Q 1469 3103 1208 2742
Q 947 2381 947 1747
z
M 2906 525
Q 2725 213 2448 61
Q 2172 -91 1784 -91
Q 1150 -91 751 415
Q 353 922 353 1747
Q 353 2572 751 3078
Q 1150 3584 1784 3584
Q 2172 3584 2448 3432
Q 2725 3281 2906 2969
L 2906 3500
L 3481 3500
L 3481 -1331
L 2906 -1331
L 2906 525
z
" transform="scale(0.015625)"/>
    </defs>
    <use xlink:href="#DejaVuSans-35"/>
    <use xlink:href="#DejaVuSans-48" transform="translate(65 0)"/>
    <use xlink:href="#DejaVuSans-54" transform="translate(126.53125 0)"/>
    <use xlink:href="#DejaVuSans-58" transform="translate(190.015625 0)"/>
    <use xlink:href="#DejaVuSans-4c" transform="translate(253.390625 0)"/>
    <use xlink:href="#DejaVuSans-55" transform="translate(281.171875 0)"/>
    <use xlink:href="#DejaVuSans-48" transform="translate(320.078125 0)"/>
    <use xlink:href="#DejaVuSans-50" transform="translate(381.609375 0)"/>
    <use xlink:href="#DejaVuSans-48" transform="translate(479.015625 0)"/>
    <use xlink:href="#DejaVuSans-51" transform="translate(540.546875 0)"/>
    <use xlink:href="#DejaVuSans-57" transform="translate(603.921875 0)"/>
    <use xlink:href="#DejaVuSans-56" transform="translate(643.125 0)"/>
    <use xlink:href="#DejaVuSans-3" transform="translate(695.21875 0)"/>
    <use xlink:href="#DejaVuSans-e" transform="translate(727 0)"/>
    <use xlink:href="#DejaVuSans-3" transform="translate(810.796875 0)"/>
    <use xlink:href="#DejaVuSans-46" transform="translate(842.578125 0)"/>
    <use xlink:href="#DejaVuSans-52" transform="translate(897.5625 0)"/>
    <use xlink:href="#DejaVuSans-47" transform="translate(958.75 0)"/>
    <use xlink:href="#DejaVuSans-48" transform="translate(1022.234375 0)"/>
   </g>
  </g>
  <g id="text_21">
   <!-- →  Runnable interaction -->
   <g style="fill: #287e81" transform="translate(506.88 386.8128) scale(0.12 -0.12)">
    <use xlink:href="#DejaVuSans-c1c"/>
    <use xlink:href="#DejaVuSans-3" transform="translate(83.796875 0)"/>
    <use xlink:href="#DejaVuSans-3" transform="translate(115.578125 0)"/>
    <use xlink:href="#DejaVuSans-35" transform="translate(147.359375 0)"/>
    <use xlink:href="#DejaVuSans-58" transform="translate(212.359375 0)"/>
    <use xlink:href="#DejaVuSans-51" transform="translate(275.734375 0)"/>
    <use xlink:href="#DejaVuSans-51" transform="translate(339.109375 0)"/>
    <use xlink:href="#DejaVuSans-44" transform="translate(402.484375 0)"/>
    <use xlink:href="#DejaVuSans-45" transform="translate(463.765625 0)"/>
    <use xlink:href="#DejaVuSans-4f" transform="translate(527.25 0)"/>
    <use xlink:href="#DejaVuSans-48" transform="translate(555.03125 0)"/>
    <use xlink:href="#DejaVuSans-3" transform="translate(616.5625 0)"/>
    <use xlink:href="#DejaVuSans-4c" transform="translate(648.34375 0)"/>
    <use xlink:href="#DejaVuSans-51" transform="translate(676.125 0)"/>
    <use xlink:href="#DejaVuSans-57" transform="translate(739.5 0)"/>
    <use xlink:href="#DejaVuSans-48" transform="translate(778.703125 0)"/>
    <use xlink:href="#DejaVuSans-55" transform="translate(840.234375 0)"/>
    <use xlink:href="#DejaVuSans-44" transform="translate(881.34375 0)"/>
    <use xlink:href="#DejaVuSans-46" transform="translate(942.625 0)"/>
    <use xlink:href="#DejaVuSans-57" transform="translate(997.609375 0)"/>
    <use xlink:href="#DejaVuSans-4c" transform="translate(1036.8125 0)"/>
    <use xlink:href="#DejaVuSans-52" transform="translate(1064.59375 0)"/>
    <use xlink:href="#DejaVuSans-51" transform="translate(1125.78125 0)"/>
   </g>
  </g>
  <g id="text_22">
   <!-- The video records the program -->
   <g style="fill: #5c6d70" transform="translate(506.88 415.584) scale(0.105 -0.105)">
    <defs>
     <path id="DejaVuSans-37" d="M -19 4666
L 3928 4666
L 3928 4134
L 2272 4134
L 2272 0
L 1638 0
L 1638 4134
L -19 4134
L -19 4666
z
" transform="scale(0.015625)"/>
    </defs>
    <use xlink:href="#DejaVuSans-37"/>
    <use xlink:href="#DejaVuSans-4b" transform="translate(61.078125 0)"/>
    <use xlink:href="#DejaVuSans-48" transform="translate(124.453125 0)"/>
    <use xlink:href="#DejaVuSans-3" transform="translate(185.984375 0)"/>
    <use xlink:href="#DejaVuSans-59" transform="translate(217.765625 0)"/>
    <use xlink:href="#DejaVuSans-4c" transform="translate(276.953125 0)"/>
    <use xlink:href="#DejaVuSans-47" transform="translate(304.734375 0)"/>
    <use xlink:href="#DejaVuSans-48" transform="translate(368.21875 0)"/>
    <use xlink:href="#DejaVuSans-52" transform="translate(429.75 0)"/>
    <use xlink:href="#DejaVuSans-3" transform="translate(490.9375 0)"/>
    <use xlink:href="#DejaVuSans-55" transform="translate(522.71875 0)"/>
    <use xlink:href="#DejaVuSans-48" transform="translate(561.625 0)"/>
    <use xlink:href="#DejaVuSans-46" transform="translate(623.15625 0)"/>
    <use xlink:href="#DejaVuSans-52" transform="translate(678.140625 0)"/>
    <use xlink:href="#DejaVuSans-55" transform="translate(739.328125 0)"/>
    <use xlink:href="#DejaVuSans-47" transform="translate(778.6875 0)"/>
    <use xlink:href="#DejaVuSans-56" transform="translate(842.171875 0)"/>
    <use xlink:href="#DejaVuSans-3" transform="translate(894.265625 0)"/>
    <use xlink:href="#DejaVuSans-57" transform="translate(926.046875 0)"/>
    <use xlink:href="#DejaVuSans-4b" transform="translate(965.25 0)"/>
    <use xlink:href="#DejaVuSans-48" transform="translate(1028.625 0)"/>
    <use xlink:href="#DejaVuSans-3" transform="translate(1090.15625 0)"/>
    <use xlink:href="#DejaVuSans-53" transform="translate(1121.9375 0)"/>
    <use xlink:href="#DejaVuSans-55" transform="translate(1185.421875 0)"/>
    <use xlink:href="#DejaVuSans-52" transform="translate(1224.328125 0)"/>
    <use xlink:href="#DejaVuSans-4a" transform="translate(1285.515625 0)"/>
    <use xlink:href="#DejaVuSans-55" transform="translate(1349 0)"/>
    <use xlink:href="#DejaVuSans-44" transform="translate(1390.109375 0)"/>
    <use xlink:href="#DejaVuSans-50" transform="translate(1451.390625 0)"/>
   </g>
  </g>
  <g id="text_23">
   <!-- Read creator disclosures, matching public projects and sampled previews together. -->
   <g style="fill: #5c6d70" transform="translate(50.688 485.9136) scale(0.11 -0.11)">
    <defs>
     <path id="DejaVuSans-4d" d="M 603 3500
L 1178 3500
L 1178 -63
Q 1178 -731 923 -1031
Q 669 -1331 103 -1331
L -116 -1331
L -116 -844
L 38 -844
Q 366 -844 484 -692
Q 603 -541 603 -63
L 603 3500
z
M 603 4863
L 1178 4863
L 1178 4134
L 603 4134
L 603 4863
z
" transform="scale(0.015625)"/>
     <path id="DejaVuSans-11" d="M 684 794
L 1344 794
L 1344 0
L 684 0
L 684 794
z
" transform="scale(0.015625)"/>
    </defs>
    <use xlink:href="#DejaVuSans-35"/>
    <use xlink:href="#DejaVuSans-48" transform="translate(65 0)"/>
    <use xlink:href="#DejaVuSans-44" transform="translate(126.53125 0)"/>
    <use xlink:href="#DejaVuSans-47" transform="translate(187.8125 0)"/>
    <use xlink:href="#DejaVuSans-3" transform="translate(251.296875 0)"/>
    <use xlink:href="#DejaVuSans-46" transform="translate(283.078125 0)"/>
    <use xlink:href="#DejaVuSans-55" transform="translate(338.0625 0)"/>
    <use xlink:href="#DejaVuSans-48" transform="translate(376.96875 0)"/>
    <use xlink:href="#DejaVuSans-44" transform="translate(438.5 0)"/>
    <use xlink:href="#DejaVuSans-57" transform="translate(499.78125 0)"/>
    <use xlink:href="#DejaVuSans-52" transform="translate(538.984375 0)"/>
    <use xlink:href="#DejaVuSans-55" transform="translate(600.171875 0)"/>
    <use xlink:href="#DejaVuSans-3" transform="translate(641.28125 0)"/>
    <use xlink:href="#DejaVuSans-47" transform="translate(673.0625 0)"/>
    <use xlink:href="#DejaVuSans-4c" transform="translate(736.546875 0)"/>
    <use xlink:href="#DejaVuSans-56" transform="translate(764.328125 0)"/>
    <use xlink:href="#DejaVuSans-46" transform="translate(816.421875 0)"/>
    <use xlink:href="#DejaVuSans-4f" transform="translate(871.40625 0)"/>
    <use xlink:href="#DejaVuSans-52" transform="translate(899.1875 0)"/>
    <use xlink:href="#DejaVuSans-56" transform="translate(960.375 0)"/>
    <use xlink:href="#DejaVuSans-58" transform="translate(1012.46875 0)"/>
    <use xlink:href="#DejaVuSans-55" transform="translate(1075.84375 0)"/>
    <use xlink:href="#DejaVuSans-48" transform="translate(1114.75 0)"/>
    <use xlink:href="#DejaVuSans-56" transform="translate(1176.28125 0)"/>
    <use xlink:href="#DejaVuSans-f" transform="translate(1228.375 0)"/>
    <use xlink:href="#DejaVuSans-3" transform="translate(1260.15625 0)"/>
    <use xlink:href="#DejaVuSans-50" transform="translate(1291.9375 0)"/>
    <use xlink:href="#DejaVuSans-44" transform="translate(1389.34375 0)"/>
    <use xlink:href="#DejaVuSans-57" transform="translate(1450.625 0)"/>
    <use xlink:href="#DejaVuSans-46" transform="translate(1489.828125 0)"/>
    <use xlink:href="#DejaVuSans-4b" transform="translate(1544.8125 0)"/>
    <use xlink:href="#DejaVuSans-4c" transform="translate(1608.1875 0)"/>
    <use xlink:href="#DejaVuSans-51" transform="translate(1635.96875 0)"/>
    <use xlink:href="#DejaVuSans-4a" transform="translate(1699.34375 0)"/>
    <use xlink:href="#DejaVuSans-3" transform="translate(1762.828125 0)"/>
    <use xlink:href="#DejaVuSans-53" transform="translate(1794.609375 0)"/>
    <use xlink:href="#DejaVuSans-58" transform="translate(1858.09375 0)"/>
    <use xlink:href="#DejaVuSans-45" transform="translate(1921.46875 0)"/>
    <use xlink:href="#DejaVuSans-4f" transform="translate(1984.953125 0)"/>
    <use xlink:href="#DejaVuSans-4c" transform="translate(2012.734375 0)"/>
    <use xlink:href="#DejaVuSans-46" transform="translate(2040.515625 0)"/>
    <use xlink:href="#DejaVuSans-3" transform="translate(2095.5 0)"/>
    <use xlink:href="#DejaVuSans-53" transform="translate(2127.28125 0)"/>
    <use xlink:href="#DejaVuSans-55" transform="translate(2190.765625 0)"/>
    <use xlink:href="#DejaVuSans-52" transform="translate(2229.671875 0)"/>
    <use xlink:href="#DejaVuSans-4d" transform="translate(2290.859375 0)"/>
    <use xlink:href="#DejaVuSans-48" transform="translate(2318.640625 0)"/>
    <use xlink:href="#DejaVuSans-46" transform="translate(2380.171875 0)"/>
    <use xlink:href="#DejaVuSans-57" transform="translate(2435.15625 0)"/>
    <use xlink:href="#DejaVuSans-56" transform="translate(2474.359375 0)"/>
    <use xlink:href="#DejaVuSans-3" transform="translate(2526.453125 0)"/>
    <use xlink:href="#DejaVuSans-44" transform="translate(2558.234375 0)"/>
    <use xlink:href="#DejaVuSans-51" transform="translate(2619.515625 0)"/>
    <use xlink:href="#DejaVuSans-47" transform="translate(2682.890625 0)"/>
    <use xlink:href="#DejaVuSans-3" transform="translate(2746.375 0)"/>
    <use xlink:href="#DejaVuSans-56" transform="translate(2778.15625 0)"/>
    <use xlink:href="#DejaVuSans-44" transform="translate(2830.25 0)"/>
    <use xlink:href="#DejaVuSans-50" transform="translate(2891.53125 0)"/>
    <use xlink:href="#DejaVuSans-53" transform="translate(2988.9375 0)"/>
    <use xlink:href="#DejaVuSans-4f" transform="translate(3052.421875 0)"/>
    <use xlink:href="#DejaVuSans-48" transform="translate(3080.203125 0)"/>
    <use xlink:href="#DejaVuSans-47" transform="translate(3141.734375 0)"/>
    <use xlink:href="#DejaVuSans-3" transform="translate(3205.21875 0)"/>
    <use xlink:href="#DejaVuSans-53" transform="translate(3237 0)"/>
    <use xlink:href="#DejaVuSans-55" transform="translate(3300.484375 0)"/>
    <use xlink:href="#DejaVuSans-48" transform="translate(3339.390625 0)"/>
    <use xlink:href="#DejaVuSans-59" transform="translate(3400.921875 0)"/>
    <use xlink:href="#DejaVuSans-4c" transform="translate(3460.109375 0)"/>
    <use xlink:href="#DejaVuSans-48" transform="translate(3487.890625 0)"/>
    <use xlink:href="#DejaVuSans-5a" transform="translate(3549.421875 0)"/>
    <use xlink:href="#DejaVuSans-56" transform="translate(3631.203125 0)"/>
    <use xlink:href="#DejaVuSans-3" transform="translate(3683.296875 0)"/>
    <use xlink:href="#DejaVuSans-57" transform="translate(3715.078125 0)"/>
    <use xlink:href="#DejaVuSans-52" transform="translate(3754.28125 0)"/>
    <use xlink:href="#DejaVuSans-4a" transform="translate(3815.46875 0)"/>
    <use xlink:href="#DejaVuSans-48" transform="translate(3878.953125 0)"/>
    <use xlink:href="#DejaVuSans-57" transform="translate(3940.484375 0)"/>
    <use xlink:href="#DejaVuSans-4b" transform="translate(3979.6875 0)"/>
    <use xlink:href="#DejaVuSans-48" transform="translate(4043.0625 0)"/>
    <use xlink:href="#DejaVuSans-55" transform="translate(4104.59375 0)"/>
    <use xlink:href="#DejaVuSans-11" transform="translate(4136.53125 0)"/>
   </g>
  </g>
  <g id="text_24">
   <!-- Seven detailed review paths and source examples are listed in data/cases.csv and the README. -->
   <g style="fill: #5c6d70" transform="translate(50.688 507.7584) scale(0.09 -0.09)">
    <defs>
     <path id="DejaVuSans-24" d="M 2188 4044
L 1331 1722
L 3047 1722
L 2188 4044
z
M 1831 4666
L 2547 4666
L 4325 0
L 3669 0
L 3244 1197
L 1141 1197
L 716 0
L 50 0
L 1831 4666
z
" transform="scale(0.015625)"/>
     <path id="DejaVuSans-27" d="M 1259 4147
L 1259 519
L 2022 519
Q 2988 519 3436 956
Q 3884 1394 3884 2338
Q 3884 3275 3436 3711
Q 2988 4147 2022 4147
L 1259 4147
z
M 628 4666
L 1925 4666
Q 3281 4666 3915 4102
Q 4550 3538 4550 2338
Q 4550 1131 3912 565
Q 3275 0 1925 0
L 628 0
L 628 4666
z
" transform="scale(0.015625)"/>
    </defs>
    <use xlink:href="#DejaVuSans-36"/>
    <use xlink:href="#DejaVuSans-48" transform="translate(63.484375 0)"/>
    <use xlink:href="#DejaVuSans-59" transform="translate(125.015625 0)"/>
    <use xlink:href="#DejaVuSans-48" transform="translate(184.203125 0)"/>
    <use xlink:href="#DejaVuSans-51" transform="translate(245.734375 0)"/>
    <use xlink:href="#DejaVuSans-3" transform="translate(309.109375 0)"/>
    <use xlink:href="#DejaVuSans-47" transform="translate(340.890625 0)"/>
    <use xlink:href="#DejaVuSans-48" transform="translate(404.375 0)"/>
    <use xlink:href="#DejaVuSans-57" transform="translate(465.90625 0)"/>
    <use xlink:href="#DejaVuSans-44" transform="translate(505.109375 0)"/>
    <use xlink:href="#DejaVuSans-4c" transform="translate(566.390625 0)"/>
    <use xlink:href="#DejaVuSans-4f" transform="translate(594.171875 0)"/>
    <use xlink:href="#DejaVuSans-48" transform="translate(621.953125 0)"/>
    <use xlink:href="#DejaVuSans-47" transform="translate(683.484375 0)"/>
    <use xlink:href="#DejaVuSans-3" transform="translate(746.96875 0)"/>
    <use xlink:href="#DejaVuSans-55" transform="translate(778.75 0)"/>
    <use xlink:href="#DejaVuSans-48" transform="translate(817.65625 0)"/>
    <use xlink:href="#DejaVuSans-59" transform="translate(879.1875 0)"/>
    <use xlink:href="#DejaVuSans-4c" transform="translate(938.375 0)"/>
    <use xlink:href="#DejaVuSans-48" transform="translate(966.15625 0)"/>
    <use xlink:href="#DejaVuSans-5a" transform="translate(1027.6875 0)"/>
    <use xlink:href="#DejaVuSans-3" transform="translate(1109.46875 0)"/>
    <use xlink:href="#DejaVuSans-53" transform="translate(1141.25 0)"/>
    <use xlink:href="#DejaVuSans-44" transform="translate(1204.734375 0)"/>
    <use xlink:href="#DejaVuSans-57" transform="translate(1266.015625 0)"/>
    <use xlink:href="#DejaVuSans-4b" transform="translate(1305.21875 0)"/>
    <use xlink:href="#DejaVuSans-56" transform="translate(1368.59375 0)"/>
    <use xlink:href="#DejaVuSans-3" transform="translate(1420.6875 0)"/>
    <use xlink:href="#DejaVuSans-44" transform="translate(1452.46875 0)"/>
    <use xlink:href="#DejaVuSans-51" transform="translate(1513.75 0)"/>
    <use xlink:href="#DejaVuSans-47" transform="translate(1577.125 0)"/>
    <use xlink:href="#DejaVuSans-3" transform="translate(1640.609375 0)"/>
    <use xlink:href="#DejaVuSans-56" transform="translate(1672.390625 0)"/>
    <use xlink:href="#DejaVuSans-52" transform="translate(1724.484375 0)"/>
    <use xlink:href="#DejaVuSans-58" transform="translate(1785.671875 0)"/>
    <use xlink:href="#DejaVuSans-55" transform="translate(1849.046875 0)"/>
    <use xlink:href="#DejaVuSans-46" transform="translate(1887.953125 0)"/>
    <use xlink:href="#DejaVuSans-48" transform="translate(1942.9375 0)"/>
    <use xlink:href="#DejaVuSans-3" transform="translate(2004.46875 0)"/>
    <use xlink:href="#DejaVuSans-48" transform="translate(2036.25 0)"/>
    <use xlink:href="#DejaVuSans-5b" transform="translate(2096.03125 0)"/>
    <use xlink:href="#DejaVuSans-44" transform="translate(2155.21875 0)"/>
    <use xlink:href="#DejaVuSans-50" transform="translate(2216.5 0)"/>
    <use xlink:href="#DejaVuSans-53" transform="translate(2313.90625 0)"/>
    <use xlink:href="#DejaVuSans-4f" transform="translate(2377.390625 0)"/>
    <use xlink:href="#DejaVuSans-48" transform="translate(2405.171875 0)"/>
    <use xlink:href="#DejaVuSans-56" transform="translate(2466.703125 0)"/>
    <use xlink:href="#DejaVuSans-3" transform="translate(2518.796875 0)"/>
    <use xlink:href="#DejaVuSans-44" transform="translate(2550.578125 0)"/>
    <use xlink:href="#DejaVuSans-55" transform="translate(2611.859375 0)"/>
    <use xlink:href="#DejaVuSans-48" transform="translate(2650.765625 0)"/>
    <use xlink:href="#DejaVuSans-3" transform="translate(2712.296875 0)"/>
    <use xlink:href="#DejaVuSans-4f" transform="translate(2744.078125 0)"/>
    <use xlink:href="#DejaVuSans-4c" transform="translate(2771.859375 0)"/>
    <use xlink:href="#DejaVuSans-56" transform="translate(2799.640625 0)"/>
    <use xlink:href="#DejaVuSans-57" transform="translate(2851.734375 0)"/>
    <use xlink:href="#DejaVuSans-48" transform="translate(2890.9375 0)"/>
    <use xlink:href="#DejaVuSans-47" transform="translate(2952.46875 0)"/>
    <use xlink:href="#DejaVuSans-3" transform="translate(3015.953125 0)"/>
    <use xlink:href="#DejaVuSans-4c" transform="translate(3047.734375 0)"/>
    <use xlink:href="#DejaVuSans-51" transform="translate(3075.515625 0)"/>
    <use xlink:href="#DejaVuSans-3" transform="translate(3138.890625 0)"/>
    <use xlink:href="#DejaVuSans-47" transform="translate(3170.671875 0)"/>
    <use xlink:href="#DejaVuSans-44" transform="translate(3234.15625 0)"/>
    <use xlink:href="#DejaVuSans-57" transform="translate(3295.4375 0)"/>
    <use xlink:href="#DejaVuSans-44" transform="translate(3334.640625 0)"/>
    <use xlink:href="#DejaVuSans-12" transform="translate(3395.921875 0)"/>
    <use xlink:href="#DejaVuSans-46" transform="translate(3429.609375 0)"/>
    <use xlink:href="#DejaVuSans-44" transform="translate(3484.59375 0)"/>
    <use xlink:href="#DejaVuSans-56" transform="translate(3545.875 0)"/>
    <use xlink:href="#DejaVuSans-48" transform="translate(3597.96875 0)"/>
    <use xlink:href="#DejaVuSans-56" transform="translate(3659.5 0)"/>
    <use xlink:href="#DejaVuSans-11" transform="translate(3711.59375 0)"/>
    <use xlink:href="#DejaVuSans-46" transform="translate(3743.375 0)"/>
    <use xlink:href="#DejaVuSans-56" transform="translate(3798.359375 0)"/>
    <use xlink:href="#DejaVuSans-59" transform="translate(3850.453125 0)"/>
    <use xlink:href="#DejaVuSans-3" transform="translate(3909.640625 0)"/>
    <use xlink:href="#DejaVuSans-44" transform="translate(3941.421875 0)"/>
    <use xlink:href="#DejaVuSans-51" transform="translate(4002.703125 0)"/>
    <use xlink:href="#DejaVuSans-47" transform="translate(4066.078125 0)"/>
    <use xlink:href="#DejaVuSans-3" transform="translate(4129.5625 0)"/>
    <use xlink:href="#DejaVuSans-57" transform="translate(4161.34375 0)"/>
    <use xlink:href="#DejaVuSans-4b" transform="translate(4200.546875 0)"/>
    <use xlink:href="#DejaVuSans-48" transform="translate(4263.921875 0)"/>
    <use xlink:href="#DejaVuSans-3" transform="translate(4325.453125 0)"/>
    <use xlink:href="#DejaVuSans-35" transform="translate(4357.234375 0)"/>
    <use xlink:href="#DejaVuSans-28" transform="translate(4426.71875 0)"/>
    <use xlink:href="#DejaVuSans-24" transform="translate(4489.90625 0)"/>
    <use xlink:href="#DejaVuSans-27" transform="translate(4558.3125 0)"/>
    <use xlink:href="#DejaVuSans-30" transform="translate(4635.3125 0)"/>
    <use xlink:href="#DejaVuSans-28" transform="translate(4721.59375 0)"/>
    <use xlink:href="#DejaVuSans-11" transform="translate(4784.78125 0)"/>
   </g>
  </g>
 </g>
</svg>
